<svg width="271" height="250" viewBox="0 0 271 250" fill="none" xmlns="http://www.w3.org/2000/svg">
<path opacity="0.1" d="M266.289 108.641H222.974C222.905 107.625 222.821 106.609 222.722 105.591H243.623C244.634 105.591 245.602 105.19 246.317 104.476C247.031 103.761 247.432 102.793 247.432 101.782C247.432 100.772 247.031 99.8031 246.317 99.0888C245.602 98.3744 244.634 97.9731 243.623 97.9731H221.595C220.517 92.7338 218.805 87.828 216.174 83.6818C211.02 75.5598 202.976 71.521 195.054 70.6762C187.132 69.8314 179.195 71.8434 171.4 74.0109C161.025 76.9122 148.816 79.5244 140.994 69.9351C136.366 64.2512 134.521 54.9398 136.177 46.8252C136.616 44.8358 137.158 42.8709 137.8 40.9375H165.275C166.285 40.9375 167.254 40.5362 167.968 39.8218C168.682 39.1074 169.084 38.1385 169.084 37.1284C169.084 36.1184 168.682 35.1494 167.968 34.435C167.254 33.7207 166.285 33.3194 165.275 33.3194H139.808C140 32.1459 140.094 30.9587 140.09 29.7697C140.039 26.907 139.359 24.0902 138.101 21.5185C136.842 18.9466 135.035 16.6824 132.805 14.8855C128.807 11.7397 124.127 10.6281 119.525 9.83521C109.247 8.03443 98.646 7.48975 88.6343 10.9987C79.1599 0.775757 65.8171 -2.68129 54.1751 2.15413C50.8514 3.48066 47.8909 5.57879 45.538 8.27528H68.2515C69.2341 8.27528 70.1768 8.66567 70.8715 9.36056C71.5666 10.0554 71.9568 10.9979 71.9568 11.9806C71.9568 12.9633 71.5666 13.9058 70.8715 14.6006C70.1768 15.2955 69.2341 15.6859 68.2515 15.6859H41.5734C39.8615 21.2438 39.8763 27.7355 39.9615 33.8678C39.9615 34.5569 39.9801 35.2461 39.9912 35.9353H50.744C51.7544 35.9353 52.723 36.3366 53.4373 37.051C54.1517 37.7654 54.553 38.7343 54.553 39.7444C54.553 40.7544 54.1517 41.7234 53.4373 42.4377C52.723 43.1521 51.7544 43.5534 50.744 43.5534H40.1283L40.1876 47.6885H65.1131C66.1235 47.6885 67.0921 48.0898 67.8065 48.8042C68.5209 49.5186 68.9221 50.4875 68.9221 51.4976C68.9221 52.5076 68.5209 53.4766 67.8065 54.1909C67.0921 54.9053 66.1235 55.3066 65.1131 55.3066H40.2876C40.2876 56.1774 40.3098 57.0629 40.3247 57.9448C40.4136 64.1326 40.4803 70.4909 38.8722 76.286C33.9109 94.1344 16.3218 98.4437 6.81404 112.561H46.8312C47.8416 112.561 48.8102 112.962 49.5245 113.677C50.2389 114.391 50.6402 115.36 50.6402 116.37C50.6402 117.38 50.2389 118.349 49.5245 119.063C48.8102 119.778 47.8416 120.179 46.8312 120.179H2.93459C2.58876 121.103 2.27381 122.046 1.98974 123.01H30.2797C31.2899 123.01 32.2588 123.411 32.9731 124.125C33.6874 124.84 34.0887 125.809 34.0887 126.819C34.0887 127.829 33.6874 128.798 32.9731 129.512C32.2588 130.227 31.2899 130.628 30.2797 130.628H0.389053C-0.628803 138.846 0.357723 147.188 3.26436 154.942C9.7264 171.783 24.7551 180.32 38.8648 180.053C52.9745 179.786 66.4396 172.216 79.1006 163.816C88.6677 157.462 98.6831 150.366 109.332 151.37C120.192 152.393 129.489 161.619 139.315 167.903C155.319 178.137 173.96 180.749 191.19 175.177C198.808 172.713 206.359 168.507 211.939 161.126C217.353 153.942 220.428 144.452 221.943 134.348H236.531C237.514 134.348 238.456 133.957 239.151 133.263C239.846 132.568 240.237 131.625 240.237 130.643C240.237 129.66 239.846 128.717 239.151 128.023C238.456 127.328 237.514 126.937 236.531 126.937H222.818C223.092 123.529 223.218 120.097 223.226 116.703V116.266H266.289C267.299 116.266 268.268 115.865 268.982 115.15C269.697 114.436 270.098 113.468 270.098 112.457C270.098 111.447 269.697 110.478 268.982 109.764C268.268 109.049 267.299 108.648 266.289 108.648V108.641Z" fill="#772BD8"/>
<path opacity="0.2" d="M170.257 226.123C166.256 226.116 162.421 224.522 159.594 221.691C156.767 218.859 155.18 215.022 155.18 211.021V196.312H159.279V211.017C159.279 212.865 159.744 214.682 160.631 216.302C161.519 217.922 162.799 219.293 164.355 220.288C165.912 221.283 167.693 221.87 169.536 221.995C171.379 222.12 173.224 221.78 174.9 221.004C176.577 220.229 178.031 219.044 179.129 217.559C180.227 216.073 180.934 214.336 181.183 212.505C181.433 210.675 181.218 208.812 180.558 207.087C179.898 205.361 178.814 203.83 177.407 202.634L180.06 199.511C182.336 201.446 183.986 204.011 184.804 206.884C185.621 209.757 185.568 212.807 184.652 215.65C183.735 218.492 181.997 220.999 179.656 222.854C177.315 224.709 174.476 225.827 171.499 226.069C171.085 226.105 170.671 226.123 170.257 226.123Z" fill="#772BD8"/>
<path opacity="0.2" d="M168.548 219.74C168.104 219.739 167.661 219.707 167.222 219.642L167.818 215.586C168.614 215.702 169.425 215.62 170.181 215.347C170.937 215.074 171.613 214.619 172.151 214.022C172.689 213.425 173.071 212.704 173.264 211.924C173.457 211.144 173.455 210.329 173.258 209.55C173.06 208.771 172.673 208.053 172.132 207.459C171.591 206.865 170.911 206.414 170.154 206.146C169.397 205.877 168.584 205.8 167.79 205.92C166.996 206.04 166.243 206.354 165.599 206.835L163.151 203.547C164.291 202.699 165.616 202.134 167.017 201.897C168.417 201.66 169.854 201.759 171.209 202.186C172.564 202.612 173.799 203.354 174.812 204.35C175.825 205.346 176.587 206.569 177.035 207.917C177.484 209.265 177.607 210.7 177.393 212.104C177.18 213.509 176.636 214.843 175.807 215.996C174.978 217.15 173.888 218.09 172.624 218.741C171.361 219.391 169.962 219.732 168.541 219.737L168.548 219.74Z" fill="#F0C778"/>
<path opacity="0.2" d="M169.898 194.077C171.545 194.077 172.879 192.743 172.879 191.097C172.879 189.45 171.545 188.116 169.898 188.116C168.253 188.116 166.918 189.45 166.918 191.097C166.918 192.743 168.253 194.077 169.898 194.077Z" fill="#F0C778"/>
<path opacity="0.2" d="M49.547 249.779H36.3219C35.7782 249.779 35.2568 249.564 34.8724 249.179C34.4879 248.795 34.272 248.273 34.272 247.73C34.272 247.186 34.4879 246.665 34.8724 246.28C35.2568 245.896 35.7782 245.68 36.3219 245.68H49.547C50.0906 245.68 50.612 245.896 50.9964 246.28C51.3809 246.665 51.5969 247.186 51.5969 247.73C51.5969 248.273 51.3809 248.795 50.9964 249.179C50.612 249.564 50.0906 249.779 49.547 249.779Z" fill="#772BD8"/>
<path opacity="0.2" d="M107.873 231.512C104.36 231.523 100.93 230.454 98.0461 228.449C95.1626 226.444 92.965 223.601 91.7519 220.305C90.5388 217.009 90.3685 213.42 91.2642 210.024C92.16 206.628 94.0782 203.59 96.7591 201.321L99.413 204.444C97.7452 205.862 96.4611 207.677 95.6788 209.721C94.8969 211.766 94.6423 213.975 94.9385 216.144C95.2346 218.313 96.072 220.373 97.3736 222.133C98.6752 223.893 100.399 225.298 102.386 226.217C104.373 227.135 106.559 227.539 108.744 227.391C110.928 227.243 113.039 226.547 114.884 225.368C116.728 224.189 118.247 222.564 119.298 220.644C120.35 218.724 120.901 216.57 120.901 214.381V182.15H125.001V214.381C125.001 218.922 123.197 223.277 119.986 226.488C116.775 229.699 112.42 231.503 107.879 231.503L107.873 231.512Z" fill="#772BD8"/>
<path opacity="0.2" d="M139.244 239.354C136.703 239.35 134.267 238.338 132.472 236.54C130.676 234.743 129.666 232.307 129.665 229.766V197.995H133.765V229.766C133.765 230.688 133.998 231.595 134.441 232.404C134.884 233.212 135.524 233.897 136.301 234.393C137.079 234.889 137.968 235.182 138.888 235.245C139.808 235.307 140.729 235.137 141.566 234.75C142.403 234.362 143.129 233.771 143.678 233.029C144.226 232.288 144.579 231.42 144.704 230.507C144.828 229.593 144.722 228.662 144.392 227.801C144.063 226.939 143.522 226.175 142.82 225.577L145.474 222.454C146.92 223.683 147.969 225.313 148.489 227.138C149.009 228.964 148.975 230.902 148.393 232.708C147.811 234.515 146.707 236.108 145.219 237.286C143.731 238.464 141.928 239.175 140.036 239.329C139.77 239.346 139.506 239.354 139.244 239.354Z" fill="#F0C778"/>
<path opacity="0.2" d="M133.384 182.338H129.284V192.212H133.384V182.338Z" fill="#F0C778"/>
<path opacity="0.2" d="M108.932 223.282C108.488 223.281 108.045 223.249 107.606 223.184L108.202 219.128C108.998 219.244 109.809 219.162 110.565 218.889C111.321 218.616 111.998 218.161 112.535 217.564C113.073 216.967 113.455 216.246 113.649 215.466C113.841 214.686 113.839 213.871 113.642 213.092C113.444 212.313 113.057 211.595 112.516 211.001C111.975 210.407 111.295 209.956 110.538 209.688C109.781 209.419 108.969 209.342 108.174 209.462C107.38 209.582 106.627 209.896 105.983 210.377L103.535 207.089C104.675 206.241 106 205.676 107.401 205.439C108.801 205.202 110.238 205.301 111.593 205.728C112.948 206.154 114.183 206.896 115.196 207.892C116.209 208.888 116.971 210.111 117.419 211.459C117.868 212.807 117.991 214.242 117.777 215.646C117.564 217.051 117.02 218.385 116.191 219.538C115.362 220.692 114.272 221.632 113.008 222.283C111.745 222.933 110.346 223.274 108.925 223.279L108.932 223.282Z" fill="#F0C778"/>
<path opacity="0.2" d="M143.445 217.736C142.156 217.736 140.895 217.354 139.823 216.638C138.751 215.921 137.916 214.903 137.422 213.712C136.929 212.521 136.8 211.21 137.051 209.945C137.303 208.681 137.924 207.52 138.835 206.608C139.747 205.696 140.908 205.075 142.173 204.823C143.438 204.572 144.749 204.701 145.94 205.194C147.131 205.688 148.149 206.524 148.865 207.596C149.582 208.668 149.964 209.928 149.964 211.217C149.961 212.946 149.274 214.602 148.052 215.824C146.83 217.046 145.173 217.734 143.445 217.736ZM143.445 208.795C142.966 208.795 142.497 208.937 142.099 209.203C141.701 209.469 141.39 209.848 141.207 210.29C141.024 210.733 140.975 211.22 141.069 211.69C141.162 212.16 141.393 212.591 141.732 212.93C142.071 213.269 142.502 213.5 142.972 213.593C143.442 213.687 143.929 213.639 144.372 213.455C144.815 213.272 145.193 212.961 145.459 212.563C145.725 212.165 145.867 211.696 145.867 211.217C145.867 210.575 145.611 209.959 145.157 209.505C144.703 209.051 144.087 208.796 143.445 208.795Z" fill="#F0C778"/>
<path opacity="0.2" d="M111.202 201.157C109.913 201.155 108.654 200.77 107.584 200.053C106.513 199.335 105.68 198.316 105.188 197.125C104.697 195.934 104.569 194.623 104.822 193.36C105.075 192.096 105.696 190.935 106.608 190.025C107.52 189.115 108.681 188.495 109.945 188.244C111.209 187.993 112.519 188.122 113.71 188.615C114.9 189.109 115.918 189.944 116.634 191.015C117.35 192.087 117.733 193.346 117.733 194.635C117.732 196.366 117.043 198.025 115.818 199.248C114.593 200.471 112.933 201.158 111.202 201.157ZM111.202 192.215C110.723 192.215 110.254 192.358 109.856 192.624C109.457 192.89 109.147 193.268 108.964 193.711C108.78 194.154 108.732 194.641 108.826 195.111C108.919 195.581 109.15 196.012 109.489 196.351C109.828 196.69 110.259 196.921 110.729 197.014C111.199 197.107 111.686 197.059 112.129 196.876C112.571 196.693 112.95 196.382 113.216 195.984C113.482 195.586 113.624 195.117 113.624 194.638C113.624 193.995 113.369 193.379 112.915 192.924C112.461 192.469 111.844 192.213 111.202 192.212V192.215Z" fill="#F0C778"/>
<path opacity="0.2" d="M199.706 201.157C198.417 201.157 197.157 200.775 196.085 200.058C195.013 199.342 194.177 198.324 193.683 197.133C193.19 195.942 193.061 194.631 193.312 193.366C193.564 192.102 194.185 190.94 195.097 190.028C196.009 189.117 197.17 188.496 198.434 188.245C199.699 187.993 201.01 188.122 202.201 188.615C203.392 189.109 204.41 189.944 205.127 191.016C205.843 192.088 206.225 193.349 206.225 194.638C206.223 196.366 205.535 198.023 204.313 199.245C203.091 200.467 201.435 201.155 199.706 201.157ZM199.706 192.216C199.227 192.216 198.759 192.358 198.361 192.624C197.962 192.89 197.652 193.269 197.468 193.711C197.285 194.154 197.237 194.641 197.33 195.111C197.424 195.581 197.655 196.012 197.993 196.351C198.332 196.69 198.764 196.921 199.234 197.014C199.704 197.107 200.191 197.06 200.633 196.876C201.076 196.693 201.454 196.382 201.721 195.984C201.987 195.586 202.129 195.117 202.129 194.638C202.129 193.995 201.874 193.379 201.419 192.924C200.965 192.469 200.349 192.213 199.706 192.212V192.216Z" fill="#F0C778"/>
<path opacity="0.2" d="M72.0908 209.724C72.914 209.724 73.5811 209.056 73.5811 208.233C73.5811 207.41 72.914 206.743 72.0908 206.743C71.2677 206.743 70.6006 207.41 70.6006 208.233C70.6006 209.056 71.2677 209.724 72.0908 209.724Z" fill="#772BD8"/>
<path opacity="0.2" d="M155.18 235.248C156.003 235.248 156.67 234.581 156.67 233.758C156.67 232.935 156.003 232.268 155.18 232.268C154.357 232.268 153.689 232.935 153.689 233.758C153.689 234.581 154.357 235.248 155.18 235.248Z" fill="#772BD8"/>
<path opacity="0.2" d="M205.296 240.839H201.197C201.193 237.924 200.034 235.13 197.973 233.07C195.912 231.009 193.118 229.849 190.204 229.846H187.41V225.746H190.204C194.205 225.751 198.042 227.342 200.871 230.171C203.701 233.001 205.292 236.837 205.296 240.839Z" fill="#772BD8"/>
<path opacity="0.2" d="M56.0692 241.629H51.9695C51.979 233.764 55.1072 226.224 60.6687 220.663C66.2298 215.101 73.7702 211.973 81.6348 211.964H87.5514V216.064H81.638C74.8596 216.071 68.3612 218.767 63.5677 223.56C58.7745 228.352 56.0778 234.851 56.0692 241.629Z" fill="#F0C778"/>
<path opacity="0.2" d="M234.86 240.839H230.776C230.77 232.44 227.431 224.387 221.493 218.447C215.555 212.507 207.503 209.166 199.104 209.157H191.881V205.066H199.104C208.585 205.081 217.674 208.854 224.377 215.561C231.08 222.266 234.85 231.357 234.86 240.839Z" fill="#F0C778"/>
<path opacity="0.2" d="M76.1906 240.838H72.0908C72.0959 236.837 73.6873 233.002 76.5162 230.173C79.3448 227.345 83.1801 225.753 87.1803 225.748H89.9738V229.848H87.1803C84.2671 229.852 81.4743 231.011 79.4143 233.071C77.3542 235.132 76.195 237.924 76.1906 240.838Z" fill="#772BD8"/>
<path opacity="0.2" d="M212.373 249.779H56.44C55.8966 249.779 55.375 249.564 54.9907 249.179C54.6061 248.795 54.3901 248.273 54.3901 247.73C54.3901 247.186 54.6061 246.665 54.9907 246.28C55.375 245.896 55.8966 245.68 56.44 245.68H212.373C212.917 245.68 213.438 245.896 213.823 246.28C214.207 246.665 214.423 247.186 214.423 247.73C214.423 248.273 214.207 248.795 213.823 249.179C213.438 249.564 212.917 249.779 212.373 249.779Z" fill="#F0C778"/>
<path opacity="0.2" d="M29.0545 249.779C28.9203 249.779 28.7864 249.765 28.655 249.737C28.5238 249.711 28.3954 249.673 28.2713 249.624C28.1477 249.572 28.0289 249.509 27.9162 249.436C27.8027 249.361 27.6965 249.275 27.5991 249.179C27.4084 248.989 27.2575 248.763 27.1552 248.514C27.1055 248.389 27.0672 248.261 27.0411 248.13C26.9863 247.865 26.9863 247.592 27.0411 247.328C27.0672 247.197 27.1055 247.068 27.1552 246.944C27.2071 246.821 27.2697 246.702 27.3423 246.589C27.4923 246.364 27.6852 246.172 27.9099 246.022C28.0226 245.949 28.1414 245.886 28.265 245.834C28.3891 245.784 28.5175 245.746 28.6487 245.72C28.9133 245.666 29.1862 245.666 29.4508 245.72C29.582 245.746 29.7104 245.784 29.8345 245.834C29.9581 245.886 30.0769 245.949 30.1896 246.022C30.4143 246.172 30.6072 246.364 30.7572 246.589C30.8298 246.702 30.8924 246.821 30.9443 246.944C30.9942 247.069 31.0335 247.197 31.0616 247.328C31.1139 247.593 31.1139 247.865 31.0616 248.13C31.0335 248.261 30.9942 248.389 30.9443 248.514C30.8924 248.637 30.8298 248.756 30.7572 248.869C30.6824 248.983 30.5964 249.089 30.5004 249.186C30.403 249.281 30.2968 249.367 30.1833 249.442C30.0706 249.515 29.9518 249.578 29.8282 249.63C29.7041 249.68 29.5756 249.718 29.4445 249.744C29.316 249.769 29.1854 249.78 29.0545 249.779Z" fill="#F08778"/>
<path opacity="0.2" d="M233.237 249.779H220.012C219.468 249.779 218.947 249.564 218.562 249.179C218.178 248.795 217.962 248.273 217.962 247.73C217.962 247.186 218.178 246.665 218.562 246.28C218.947 245.896 219.468 245.68 220.012 245.68H233.237C233.781 245.68 234.302 245.896 234.686 246.28C235.071 246.665 235.287 247.186 235.287 247.73C235.287 248.273 235.071 248.795 234.686 249.179C234.302 249.564 233.781 249.779 233.237 249.779Z" fill="#772BD8"/>
<path opacity="0.2" d="M240.504 249.779C240.37 249.78 240.236 249.766 240.105 249.738C239.974 249.712 239.845 249.674 239.721 249.624C239.597 249.572 239.479 249.51 239.366 249.437C239.253 249.361 239.146 249.276 239.049 249.18C238.953 249.083 238.867 248.977 238.792 248.863C238.72 248.75 238.657 248.632 238.605 248.508C238.555 248.384 238.516 248.255 238.488 248.124C238.435 247.86 238.435 247.587 238.488 247.322C238.516 247.191 238.555 247.063 238.605 246.938C238.657 246.815 238.72 246.696 238.792 246.583C238.942 246.358 239.135 246.166 239.36 246.016C239.472 245.943 239.591 245.88 239.715 245.829C239.839 245.779 239.967 245.74 240.098 245.714C240.363 245.66 240.636 245.66 240.901 245.714C241.032 245.74 241.16 245.779 241.284 245.829C241.408 245.88 241.527 245.943 241.639 246.016C241.864 246.166 242.057 246.358 242.207 246.583C242.28 246.696 242.342 246.815 242.394 246.938C242.444 247.062 242.482 247.191 242.508 247.322C242.563 247.586 242.563 247.86 242.508 248.124C242.482 248.256 242.444 248.384 242.394 248.508C242.342 248.632 242.28 248.75 242.207 248.863C242.132 248.977 242.046 249.083 241.95 249.18C241.853 249.276 241.747 249.361 241.633 249.437C241.521 249.51 241.402 249.572 241.278 249.624C241.154 249.674 241.026 249.712 240.894 249.738C240.766 249.765 240.635 249.779 240.504 249.779Z" fill="#772BD8"/>
<path fill-rule="evenodd" clip-rule="evenodd" d="M132.5 4.94141L128.5 8.44141L124 14.9414L117 24.4414L112 34.9414L106 46.4414L102 58.9414L99.5 68.9414L98 81.4414L97.5 93.4414V105.941L99.5 122.941L96 125.441L91 133.441L87 141.441L84 150.441L82.5 159.941L82 170.941L82.5 181.441L84 189.941L88.5 205.441H90L91.5 196.941L94 186.941L98 175.441L104.5 163.941L108 159.441L110.5 163.941L114 165.941L127.5 166.441H149L158 164.941L160.957 159.028L164 162.941L172.5 178.441L177 191.441L179 203.441L180.5 205.941L183 200.941L185.5 188.941L187 177.941L187.5 165.941L185.5 152.941L183 142.441L178.5 133.441L173 125.441L170.368 123.687L170.5 122.941L171.5 103.941L172 92.4414L171.5 80.9414L169 67.4414L165 51.9414L160.5 40.4414L155 28.9414L148.5 18.4414L142.5 10.4414L137.5 4.94141H132.5Z" fill="white"/>
<g opacity="0.6">
<path d="M137.354 5.01282C136.965 4.57318 136.487 4.22115 135.952 3.98004C135.417 3.73894 134.837 3.61426 134.25 3.61426C133.663 3.61426 133.083 3.73894 132.547 3.98004C132.012 4.22115 131.534 4.57318 131.146 5.01282C122.201 15.137 97.0001 47.6973 97.0001 93.2068C97.0001 137.752 106.661 157.757 110.428 163.86C111.233 165.163 112.987 166.004 114.899 166.004H153.604C155.525 166.004 157.276 165.17 158.075 163.86C161.842 157.757 171.512 137.752 171.512 93.2068C171.512 47.6973 146.302 15.137 137.354 5.01282Z" fill="#772BD8"/>
<path d="M161.144 160.787C161.144 160.787 176.363 179.741 178.428 206.322C178.447 206.591 178.56 206.846 178.747 207.042C178.933 207.238 179.182 207.362 179.451 207.395C179.719 207.427 179.991 207.366 180.219 207.22C180.447 207.075 180.618 206.855 180.701 206.597C185.914 190.722 202.042 149.442 167.5 121.441" fill="#772BD8"/>
<path d="M108.467 158.593C108.467 158.593 93.2475 177.548 91.1833 204.128C91.1637 204.398 91.0508 204.653 90.8643 204.848C90.6776 205.044 90.4287 205.169 90.1601 205.202C89.8916 205.234 89.6202 205.173 89.3922 205.027C89.1639 204.882 88.9936 204.661 88.9099 204.404C83.6941 188.528 74.5 152 99.5002 121.5" fill="#772BD8"/>
</g>
<g opacity="0.7">
<path d="M146.285 166.004H153.08C155.001 166.004 156.752 165.17 157.551 163.863C161.314 157.763 170.976 137.768 170.976 93.2416C170.976 49.6472 147.829 17.9304 138 6.46191C146.805 16.8619 167.922 44.3933 167.922 87.7943L158.248 72.1562C158.467 72.765 177.501 138.234 146.285 166.004Z" fill="#772BD8"/>
<path d="M182.061 201.758C182.15 194.389 180.27 186.668 177.806 179.753C176.538 176.214 175.13 172.888 173.744 169.923C169.402 160.672 167.376 150.505 167.84 140.296C168.113 134.386 168.335 127.756 168.335 121.852C168 121.941 167.84 121.852 167.84 121.852L161 158.441C161 158.441 176.718 178.066 178.782 204.646C178.791 204.809 178.836 204.969 178.912 205.113C178.989 205.258 179.096 205.384 179.226 205.483" fill="#772BD8"/>
<path d="M87.5528 199.569C87.464 192.2 89.3443 184.479 91.8079 177.564C93.0762 174.026 94.484 170.699 95.8697 167.735C100.209 158.478 102.231 148.304 101.761 138.092C101.488 132.181 98.5 128.904 98.5 123C99.7338 122.294 96.2712 126.022 100 123L103 141L108.099 156.907C108.099 156.907 92.8797 175.861 90.8155 202.442C90.8066 202.605 90.7622 202.764 90.6858 202.909C90.6091 203.054 90.5019 203.179 90.3716 203.279" fill="#772BD8"/>
</g>
<path d="M182.042 175.121C181.913 175.121 181.786 175.082 181.679 175.011C181.572 174.939 181.488 174.837 181.439 174.718C181.389 174.598 181.376 174.467 181.402 174.34C181.427 174.213 181.489 174.097 181.58 174.006C181.671 173.914 181.788 173.852 181.915 173.827C182.041 173.802 182.173 173.815 182.292 173.864C182.411 173.914 182.513 173.997 182.585 174.105C182.657 174.212 182.695 174.339 182.695 174.468C182.695 174.641 182.626 174.807 182.504 174.93C182.381 175.052 182.215 175.121 182.042 175.121ZM182.042 174.189C181.987 174.189 181.933 174.205 181.887 174.236C181.841 174.266 181.806 174.31 181.784 174.361C181.763 174.412 181.758 174.468 181.768 174.522C181.779 174.576 181.806 174.626 181.845 174.665C181.884 174.704 181.934 174.731 181.988 174.741C182.042 174.752 182.098 174.747 182.149 174.725C182.2 174.704 182.243 174.669 182.274 174.623C182.305 174.577 182.321 174.523 182.321 174.468C182.319 174.395 182.288 174.327 182.236 174.276C182.184 174.226 182.114 174.198 182.042 174.198V174.189Z" fill="#3D3646"/>
<path opacity="0.2" d="M182.042 175.693C181.803 175.693 181.568 175.622 181.369 175.489C181.17 175.356 181.015 175.167 180.923 174.945C180.831 174.724 180.807 174.48 180.854 174.245C180.901 174.01 181.016 173.795 181.186 173.625C181.355 173.456 181.571 173.341 181.806 173.294C182.041 173.247 182.284 173.271 182.506 173.363C182.727 173.454 182.916 173.61 183.049 173.809C183.182 174.008 183.253 174.242 183.253 174.482C183.253 174.803 183.126 175.111 182.898 175.338C182.671 175.565 182.363 175.693 182.042 175.693ZM182.042 174.016C181.95 174.016 181.86 174.043 181.783 174.094C181.706 174.145 181.647 174.218 181.611 174.303C181.576 174.388 181.567 174.482 181.585 174.573C181.603 174.663 181.647 174.746 181.713 174.811C181.778 174.876 181.861 174.921 181.951 174.939C182.042 174.957 182.135 174.947 182.22 174.912C182.305 174.877 182.378 174.817 182.429 174.741C182.481 174.664 182.508 174.574 182.508 174.482C182.508 174.358 182.459 174.239 182.372 174.152C182.284 174.065 182.166 174.016 182.042 174.016Z" fill="#3D3646"/>
<path d="M176.36 131.724H175.615V194.694H176.36V131.724Z" fill="#3D3646"/>
<path opacity="0.2" d="M175.615 131.537H174.87V189.476H175.615V131.537Z" fill="#3D3646"/>
<path d="M172.076 125.576H171.331V180.722H172.076V125.576Z" fill="#3D3646"/>
<path opacity="0.2" d="M171.331 125.576H170.586V178.857H171.331V125.576Z" fill="#3D3646"/>
<path d="M179.978 207.941C179.864 207.941 179.751 207.935 179.638 207.922C179.003 207.854 178.414 207.573 177.972 207.129C177.531 206.685 177.265 206.105 177.222 205.492C175.078 178.756 159.16 159.385 159 159.191L161.338 157.381C161.508 157.584 165.574 162.497 169.954 170.872C173.884 178.385 178.777 190.164 180.107 204.088C182.83 195.851 186.777 180.621 185.865 164.018C184.708 142.978 179.268 132.801 168 121.941L169 118.941C176.512 126.698 177.963 126.907 182.428 136.646C186.154 144.798 188.318 153.954 188.863 163.864C189.843 181.723 185.351 198.002 182.585 206.115C182.409 206.647 182.061 207.111 181.592 207.44C181.123 207.768 180.558 207.944 179.978 207.941Z" fill="#3D3646"/>
<path d="M87.5023 174.615C87.3732 174.615 87.247 174.577 87.1395 174.505C87.032 174.433 86.9483 174.331 86.8989 174.212C86.8494 174.092 86.8364 173.961 86.8618 173.834C86.8868 173.708 86.949 173.591 87.0406 173.5C87.1319 173.409 87.2483 173.346 87.3748 173.321C87.5016 173.296 87.6329 173.309 87.7524 173.358C87.8716 173.408 87.9737 173.492 88.0454 173.599C88.1171 173.706 88.1554 173.833 88.1554 173.962C88.1554 174.135 88.0866 174.301 87.9642 174.424C87.8418 174.546 87.6757 174.615 87.5023 174.615ZM87.5023 173.683C87.4471 173.683 87.3932 173.699 87.3472 173.73C87.3016 173.76 87.2657 173.804 87.2445 173.855C87.2235 173.906 87.2178 173.962 87.2286 174.016C87.2394 174.07 87.266 174.12 87.305 174.159C87.344 174.198 87.3938 174.225 87.448 174.235C87.5019 174.246 87.5581 174.241 87.6091 174.22C87.6602 174.199 87.7036 174.163 87.7344 174.117C87.7651 174.071 87.7813 174.017 87.7813 173.962C87.7806 173.888 87.7508 173.818 87.6985 173.767C87.6462 173.715 87.5758 173.686 87.5023 173.686V173.683Z" fill="#3D3646"/>
<path opacity="0.2" d="M87.5022 175.177C87.2625 175.177 87.0285 175.106 86.8294 174.973C86.63 174.84 86.4749 174.651 86.3833 174.43C86.2917 174.208 86.2676 173.965 86.3142 173.73C86.3611 173.495 86.4765 173.279 86.6458 173.11C86.8151 172.94 87.0311 172.825 87.266 172.778C87.501 172.731 87.7445 172.755 87.9658 172.847C88.1871 172.939 88.3761 173.094 88.5093 173.293C88.6424 173.492 88.7135 173.727 88.7135 173.966C88.7135 174.287 88.586 174.595 88.3587 174.822C88.1316 175.05 87.8234 175.177 87.5022 175.177ZM87.5022 173.5C87.41 173.5 87.3199 173.528 87.2432 173.579C87.1668 173.63 87.1069 173.703 87.0717 173.788C87.0365 173.873 87.027 173.967 87.045 174.057C87.0631 174.147 87.1075 174.23 87.1728 174.296C87.2378 174.361 87.3209 174.405 87.4112 174.423C87.5016 174.441 87.5955 174.432 87.6808 174.397C87.7657 174.361 87.8387 174.302 87.8897 174.225C87.9411 174.148 87.9683 174.058 87.9683 173.966C87.9683 173.905 87.9563 173.844 87.9328 173.788C87.9094 173.731 87.8751 173.68 87.8317 173.637C87.7886 173.593 87.7372 173.559 87.6808 173.535C87.624 173.512 87.5634 173.5 87.5022 173.5Z" fill="#3D3646"/>
<path d="M90.1083 150.585C89.9793 150.585 89.8531 150.546 89.7456 150.475C89.6381 150.403 89.5544 150.301 89.5049 150.182C89.4555 150.062 89.4428 149.931 89.4678 149.804C89.4932 149.677 89.5553 149.561 89.6467 149.47C89.738 149.378 89.8543 149.316 89.9812 149.291C90.1077 149.266 90.239 149.279 90.3585 149.328C90.4777 149.378 90.5798 149.461 90.6515 149.569C90.7234 149.676 90.7615 149.802 90.7615 149.931C90.7615 150.105 90.6927 150.271 90.5703 150.393C90.4479 150.516 90.2818 150.585 90.1083 150.585ZM90.1083 149.652C90.0531 149.652 89.9992 149.669 89.9536 149.7C89.9076 149.73 89.8718 149.774 89.8505 149.825C89.8296 149.876 89.8239 149.932 89.8347 149.986C89.8455 150.04 89.8721 150.09 89.9111 150.129C89.9501 150.168 89.9999 150.194 90.0541 150.205C90.108 150.216 90.1641 150.21 90.2152 150.189C90.2662 150.168 90.3097 150.132 90.3404 150.086C90.3712 150.041 90.3873 149.987 90.3873 149.931C90.3873 149.858 90.3582 149.787 90.3059 149.734C90.2535 149.682 90.1825 149.652 90.1083 149.652Z" fill="#3D3646"/>
<path opacity="0.2" d="M90.1084 151.142C89.869 151.142 89.6346 151.071 89.4355 150.938C89.2364 150.805 89.081 150.616 88.9894 150.394C88.8978 150.173 88.8737 149.929 88.9206 149.695C88.9672 149.46 89.0826 149.244 89.2519 149.074C89.4213 148.905 89.6372 148.79 89.8721 148.743C90.1071 148.696 90.3506 148.72 90.5719 148.812C90.7932 148.903 90.9825 149.059 91.1154 149.258C91.2485 149.457 91.3196 149.691 91.3196 149.931C91.3196 150.252 91.1921 150.56 90.9648 150.787C90.7377 151.014 90.4296 151.142 90.1084 151.142ZM90.1084 149.465C90.0161 149.465 89.926 149.492 89.8493 149.543C89.7729 149.595 89.713 149.667 89.6778 149.753C89.6426 149.838 89.6334 149.931 89.6511 150.022C89.6692 150.112 89.7136 150.195 89.7789 150.26C89.8439 150.326 89.927 150.37 90.0174 150.388C90.108 150.406 90.2016 150.397 90.2869 150.362C90.3718 150.326 90.4448 150.267 90.4958 150.19C90.5472 150.113 90.5745 150.023 90.5745 149.931C90.5745 149.87 90.5624 149.809 90.5389 149.753C90.5155 149.696 90.4812 149.645 90.4381 149.601C90.3947 149.558 90.3433 149.524 90.2869 149.5C90.2301 149.477 90.1696 149.465 90.1084 149.465Z" fill="#3D3646"/>
<path d="M93.9324 131.582H93.1873V192.688H93.9324V131.582Z" fill="#3D3646"/>
<path opacity="0.2" d="M95 129.941H94V187.941H95V129.941Z" fill="#3D3646"/>
<path d="M98.2161 123.568H97.4709V178.714H98.2161V123.568Z" fill="#3D3646"/>
<path d="M89.4036 207.308C88.8645 207.309 88.3392 207.139 87.9035 206.821C87.4682 206.504 87.1451 206.056 86.9811 205.542C84.4002 197.698 80.2148 181.961 81.128 164.69C81.6353 155.108 83.6645 146.256 87.1238 138.373C91.2845 128.957 96 122.941 99.5 119.941L100 122.941C90 133.941 84.9963 144.487 83.9182 164.839C83.0685 180.893 86.7719 195.618 89.2831 203.583C90.5228 190.123 95.0824 178.73 98.7445 171.466C102.828 163.368 106.614 158.618 106.773 158.422L108.951 160.172C108.894 160.245 105.146 164.96 101.202 172.798C97.565 180.027 93.0119 191.47 91.9719 204.94C91.9316 205.533 91.6843 206.094 91.2727 206.523C90.8612 206.952 90.312 207.224 89.7206 207.289C89.6154 207.302 89.5095 207.308 89.4036 207.308Z" fill="#3D3646"/>
<path d="M114.77 166.936H155.196C155.196 168.036 154.979 169.127 154.558 170.144C154.137 171.161 153.519 172.085 152.741 172.864C151.963 173.642 151.038 174.259 150.021 174.681C149.004 175.102 147.914 175.319 146.813 175.319H123.153C122.052 175.319 120.962 175.102 119.945 174.681C118.928 174.259 118.003 173.642 117.225 172.864C116.447 172.085 115.829 171.161 115.408 170.144C114.986 169.127 114.77 168.036 114.77 166.936Z" fill="#ECF2FA"/>
<path d="M120.917 168.054H120.172V174.76H120.917V168.054Z" fill="#3D3646"/>
<path opacity="0.2" d="M121.476 168.054H120.73V173.828H121.476V168.054Z" fill="#3D3646"/>
<path opacity="0.2" d="M126.133 168.054H125.388V173.828H126.133V168.054Z" fill="#3D3646"/>
<path opacity="0.2" d="M135.449 168.054H134.704V173.828H135.449V168.054Z" fill="#3D3646"/>
<path opacity="0.2" d="M140.107 168.054H139.362V173.828H140.107V168.054Z" fill="#3D3646"/>
<path opacity="0.2" d="M144.765 168.054H144.02V173.828H144.765V168.054Z" fill="#3D3646"/>
<path opacity="0.3" d="M143.274 168.054H142.529V173.828H143.274V168.054Z" fill="white"/>
<path opacity="0.3" d="M138.804 168.054H138.059V173.828H138.804V168.054Z" fill="white"/>
<path opacity="0.3" d="M134.146 168.054H133.401V173.828H134.146V168.054Z" fill="white"/>
<path opacity="0.3" d="M129.488 168.054H128.743V173.828H129.488V168.054Z" fill="white"/>
<path opacity="0.3" d="M124.83 168.054H124.085V173.828H124.83V168.054Z" fill="white"/>
<path opacity="0.3" d="M120.172 168.054H119.427V173.828H120.172V168.054Z" fill="white"/>
<path opacity="0.2" d="M130.791 168.054H130.046V173.828H130.791V168.054Z" fill="#3D3646"/>
<path d="M125.544 168.054H124.799V174.76H125.544V168.054Z" fill="#3D3646"/>
<path d="M130.173 168.054H129.428V174.76H130.173V168.054Z" fill="#3D3646"/>
<path d="M134.799 168.054H134.054V174.76H134.799V168.054Z" fill="#3D3646"/>
<path d="M144.051 168.054H143.306V174.76H144.051V168.054Z" fill="#3D3646"/>
<path d="M148.677 168.054H147.932V174.76H148.677V168.054Z" fill="#3D3646"/>
<path d="M139.422 168.054H138.677V174.76H139.422V168.054Z" fill="#3D3646"/>
<path d="M135.059 42.6748H134.313V165.633H135.059V42.6748Z" fill="#3D3646"/>
<path d="M160.098 41.5549H110C113.055 34.2051 116.64 27.087 120.727 20.2571C121.084 19.661 121.438 19.0786 121.789 18.51C128.929 7.82146 134.399 2 134.399 2C134.399 2 142.009 10.0949 150.979 24.7278L151.109 24.9434C154.054 29.8137 157.12 35.3688 160.098 41.5549Z" fill="#ECF2FA"/>
<path opacity="0.05" d="M159.724 41.0163L156.984 40.6231C152.459 34.0058 139.945 20.5015 122.696 18.6403C123.013 18.0442 124.281 16.8267 124.598 16.2591C127.075 12.1879 129.329 9.45154 131.171 6.8452C131.662 6.1471 132.311 5.57539 133.065 5.17711C133.82 4.77881 134.658 4.56531 135.511 4.55417C136.365 4.54303 137.208 4.73455 137.973 5.113C138.737 5.49143 139.401 6.04599 139.91 6.73106C143.802 11.9295 147.345 17.3815 150.513 23.0508C150.551 23.1206 150.963 23.1935 151.004 23.2664C153.683 28.1367 158.608 31.1425 159.724 41.0163Z" fill="#3D3646"/>
<path d="M131.425 64.0047C131.296 64.0047 131.17 63.9663 131.062 63.8946C130.955 63.8227 130.871 63.7206 130.821 63.6013C130.772 63.4821 130.759 63.3505 130.784 63.224C130.809 63.0972 130.872 62.9808 130.963 62.8895C131.055 62.7982 131.171 62.736 131.297 62.7107C131.424 62.6856 131.555 62.6986 131.675 62.7478C131.794 62.7972 131.896 62.8809 131.968 62.9884C132.04 63.0959 132.078 63.2221 132.078 63.3515C132.078 63.5246 132.009 63.6908 131.887 63.8131C131.764 63.9359 131.598 64.0047 131.425 64.0047ZM131.425 63.0725C131.37 63.0725 131.316 63.0886 131.27 63.1194C131.224 63.1501 131.188 63.1936 131.167 63.2446C131.146 63.2957 131.14 63.3518 131.151 63.4057C131.162 63.4599 131.189 63.5097 131.228 63.5487C131.267 63.5877 131.316 63.6143 131.371 63.6251C131.425 63.6359 131.481 63.6302 131.532 63.6093C131.583 63.588 131.626 63.5522 131.657 63.5065C131.688 63.4606 131.704 63.4067 131.704 63.3515C131.704 63.2773 131.675 63.2063 131.622 63.1539C131.57 63.1016 131.499 63.0725 131.425 63.0725Z" fill="#3D3646"/>
<path opacity="0.2" d="M131.425 64.5631C131.185 64.5631 130.951 64.4921 130.752 64.3589C130.553 64.2257 130.398 64.0367 130.306 63.8154C130.214 63.5941 130.19 63.3506 130.237 63.1156C130.284 62.8807 130.399 62.6648 130.568 62.4954C130.738 62.3258 130.954 62.2107 131.189 62.1638C131.424 62.1172 131.667 62.1413 131.888 62.2329C132.11 62.3245 132.299 62.4796 132.432 62.679C132.565 62.8781 132.636 63.1122 132.636 63.3519C132.636 63.6731 132.509 63.9812 132.281 64.2083C132.054 64.4353 131.746 64.5631 131.425 64.5631ZM131.425 62.8858C131.333 62.8858 131.243 62.913 131.166 62.9644C131.089 63.0154 131.029 63.0884 130.994 63.1733C130.959 63.2586 130.95 63.3525 130.968 63.4429C130.986 63.5332 131.03 63.6163 131.095 63.6813C131.16 63.7466 131.243 63.791 131.334 63.8091C131.424 63.8268 131.518 63.8176 131.603 63.7824C131.688 63.7473 131.761 63.6873 131.812 63.6109C131.864 63.5342 131.891 63.4441 131.891 63.3519C131.892 63.29 131.88 63.2288 131.857 63.1714C131.834 63.1144 131.8 63.0621 131.757 63.018C131.713 62.9742 131.662 62.9393 131.605 62.9156C131.548 62.8918 131.487 62.8794 131.425 62.8794V62.8858Z" fill="#3D3646"/>
<path d="M131.425 76.7654C131.296 76.7654 131.17 76.727 131.062 76.6554C130.955 76.5834 130.871 76.4813 130.821 76.3621C130.772 76.2429 130.759 76.1113 130.784 75.9848C130.809 75.8579 130.872 75.7416 130.963 75.6503C131.055 75.5589 131.171 75.4968 131.297 75.4714C131.424 75.4464 131.555 75.4594 131.675 75.5085C131.794 75.558 131.896 75.6417 131.968 75.7492C132.04 75.8567 132.078 75.9829 132.078 76.1122C132.078 76.2854 132.009 76.4515 131.887 76.5739C131.764 76.6966 131.598 76.7654 131.425 76.7654ZM131.425 75.8332C131.37 75.8332 131.316 75.8494 131.27 75.8801C131.224 75.9109 131.188 75.9543 131.167 76.0054C131.146 76.0564 131.14 76.1125 131.151 76.1664C131.162 76.2207 131.189 76.2704 131.228 76.3094C131.267 76.3484 131.316 76.3751 131.371 76.3859C131.425 76.3966 131.481 76.3909 131.532 76.37C131.583 76.3488 131.626 76.3129 131.657 76.2673C131.688 76.2213 131.704 76.1674 131.704 76.1122C131.704 76.038 131.675 75.967 131.622 75.9147C131.57 75.8624 131.499 75.8332 131.425 75.8332Z" fill="#3D3646"/>
<path opacity="0.2" d="M131.425 77.3238C131.185 77.3238 130.951 77.2528 130.752 77.1196C130.553 76.9865 130.398 76.7975 130.306 76.5762C130.214 76.3548 130.19 76.1113 130.237 75.8764C130.284 75.6414 130.399 75.4255 130.568 75.2562C130.738 75.0866 130.954 74.9715 131.189 74.9245C131.424 74.8779 131.667 74.902 131.888 74.9936C132.11 75.0853 132.299 75.2403 132.432 75.4398C132.565 75.6389 132.636 75.8729 132.636 76.1126C132.636 76.4338 132.509 76.742 132.281 76.969C132.054 77.196 131.746 77.3238 131.425 77.3238ZM131.425 75.6465C131.333 75.6465 131.243 75.6738 131.166 75.7251C131.089 75.7762 131.029 75.8491 130.994 75.9341C130.959 76.0194 130.95 76.1132 130.968 76.2036C130.986 76.294 131.03 76.377 131.095 76.442C131.16 76.5074 131.243 76.5517 131.334 76.5698C131.424 76.5876 131.518 76.5784 131.603 76.5432C131.688 76.508 131.761 76.4481 131.812 76.3717C131.864 76.2949 131.891 76.2049 131.891 76.1126C131.891 75.9889 131.842 75.8704 131.754 75.7828C131.667 75.6956 131.549 75.6465 131.425 75.6465Z" fill="#3D3646"/>
<path d="M146.684 37.8289C146.555 37.8289 146.429 37.7905 146.322 37.7188C146.214 37.6469 146.13 37.5451 146.081 37.4255C146.032 37.3063 146.019 37.1751 146.044 37.0482C146.069 36.9214 146.131 36.805 146.223 36.7137C146.314 36.6224 146.43 36.5603 146.557 36.5349C146.684 36.5098 146.815 36.5228 146.935 36.5723C147.054 36.6218 147.156 36.7055 147.228 36.8126C147.299 36.9201 147.338 37.0463 147.338 37.1757C147.338 37.2613 147.321 37.3463 147.288 37.4255C147.255 37.5048 147.207 37.5768 147.146 37.6377C147.086 37.6982 147.014 37.7464 146.935 37.7791C146.855 37.8121 146.77 37.8289 146.684 37.8289ZM146.684 36.8967C146.629 36.8967 146.575 36.9132 146.529 36.9436C146.484 36.9743 146.448 37.0178 146.427 37.0688C146.406 37.1199 146.4 37.176 146.411 37.2302C146.422 37.2841 146.448 37.3339 146.487 37.3729C146.526 37.4119 146.576 37.4385 146.63 37.4493C146.684 37.4601 146.74 37.4547 146.791 37.4335C146.842 37.4122 146.886 37.3767 146.916 37.3307C146.947 37.2848 146.963 37.2309 146.963 37.1757C146.963 37.1018 146.934 37.0308 146.882 36.9785C146.829 36.9262 146.759 36.8967 146.684 36.8967Z" fill="#3D3646"/>
<path opacity="0.2" d="M146.684 38.3873C146.445 38.3873 146.211 38.3163 146.012 38.1831C145.812 38.0502 145.657 37.861 145.565 37.6396C145.474 37.4183 145.45 37.1748 145.496 36.9399C145.543 36.7049 145.659 36.489 145.828 36.3197C145.997 36.1503 146.213 36.0349 146.448 35.988C146.683 35.9414 146.927 35.9655 147.148 36.0571C147.369 36.1488 147.558 36.3041 147.691 36.5032C147.825 36.7024 147.896 36.9367 147.896 37.1761C147.896 37.4973 147.768 37.8055 147.541 38.0325C147.314 38.2598 147.006 38.3873 146.684 38.3873ZM146.684 36.71C146.592 36.71 146.502 36.7372 146.425 36.7886C146.349 36.8397 146.289 36.9126 146.254 36.9979C146.219 37.0829 146.209 37.1767 146.227 37.2671C146.245 37.3574 146.29 37.4405 146.355 37.5058C146.42 37.5708 146.503 37.6152 146.593 37.6333C146.684 37.6514 146.778 37.6419 146.863 37.6067C146.948 37.5715 147.021 37.5119 147.072 37.4351C147.123 37.3584 147.15 37.2683 147.15 37.1761C147.15 37.0524 147.101 36.9338 147.014 36.8466C146.927 36.7591 146.808 36.71 146.684 36.71Z" fill="#3D3646"/>
<path d="M123.211 37.8289C123.082 37.8289 122.956 37.7905 122.848 37.7188C122.741 37.6469 122.658 37.5451 122.608 37.4255C122.559 37.3063 122.546 37.1751 122.571 37.0482C122.596 36.9214 122.658 36.805 122.75 36.7137C122.841 36.6224 122.957 36.5603 123.084 36.5349C123.211 36.5098 123.342 36.5228 123.461 36.5723C123.581 36.6218 123.683 36.7055 123.755 36.8126C123.826 36.9201 123.865 37.0463 123.865 37.1757C123.865 37.2613 123.848 37.3463 123.815 37.4255C123.782 37.5048 123.734 37.5768 123.673 37.6377C123.613 37.6982 123.541 37.7464 123.461 37.7791C123.382 37.8121 123.297 37.8289 123.211 37.8289ZM123.211 36.8967C123.156 36.8967 123.102 36.9132 123.056 36.9436C123.01 36.9743 122.975 37.0178 122.954 37.0688C122.932 37.1199 122.927 37.176 122.938 37.2302C122.949 37.2841 122.975 37.3339 123.014 37.3729C123.053 37.4119 123.103 37.4385 123.157 37.4493C123.211 37.4601 123.267 37.4547 123.318 37.4335C123.369 37.4122 123.413 37.3767 123.444 37.3307C123.474 37.2848 123.491 37.2309 123.491 37.1757C123.491 37.1018 123.461 37.0308 123.409 36.9785C123.356 36.9262 123.285 36.8967 123.211 36.8967Z" fill="#3D3646"/>
<path opacity="0.2" d="M123.211 38.3873C122.972 38.3873 122.737 38.3163 122.538 38.1831C122.339 38.0502 122.184 37.861 122.092 37.6396C122.001 37.4183 121.976 37.1748 122.023 36.9399C122.07 36.7049 122.185 36.489 122.355 36.3197C122.524 36.1503 122.74 36.0349 122.975 35.988C123.21 35.9414 123.453 35.9655 123.675 36.0571C123.896 36.1488 124.085 36.3041 124.218 36.5032C124.351 36.7024 124.422 36.9367 124.422 37.1761C124.422 37.4973 124.295 37.8055 124.068 38.0325C123.841 38.2598 123.532 38.3873 123.211 38.3873ZM123.211 36.71C123.119 36.71 123.029 36.7372 122.952 36.7886C122.876 36.8397 122.816 36.9126 122.781 36.9979C122.745 37.0829 122.736 37.1767 122.754 37.2671C122.772 37.3574 122.816 37.4405 122.882 37.5058C122.947 37.5708 123.03 37.6152 123.12 37.6333C123.211 37.6514 123.304 37.6419 123.39 37.6067C123.475 37.5715 123.548 37.5119 123.599 37.4351C123.65 37.3584 123.677 37.2683 123.677 37.1761C123.677 37.0524 123.628 36.9338 123.541 36.8466C123.453 36.7591 123.335 36.71 123.211 36.71Z" fill="#3D3646"/>
<path d="M134.949 37.8289C134.82 37.8289 134.693 37.7905 134.586 37.7188C134.479 37.6469 134.395 37.5451 134.346 37.4255C134.296 37.3063 134.283 37.1751 134.309 37.0482C134.334 36.9214 134.396 36.805 134.487 36.7137C134.578 36.6224 134.695 36.5603 134.822 36.5349C134.948 36.5098 135.08 36.5228 135.199 36.5723C135.318 36.6218 135.42 36.7055 135.492 36.8126C135.564 36.9201 135.602 37.0463 135.602 37.1757C135.602 37.2613 135.585 37.3463 135.552 37.4255C135.52 37.5048 135.472 37.5768 135.411 37.6377C135.35 37.6982 135.278 37.7464 135.199 37.7791C135.12 37.8121 135.035 37.8289 134.949 37.8289ZM134.949 36.8967C134.894 36.8967 134.84 36.9132 134.794 36.9436C134.748 36.9743 134.712 37.0178 134.691 37.0688C134.67 37.1199 134.665 37.176 134.675 37.2302C134.686 37.2841 134.713 37.3339 134.752 37.3729C134.791 37.4119 134.841 37.4385 134.895 37.4493C134.949 37.4601 135.005 37.4547 135.056 37.4335C135.107 37.4122 135.15 37.3767 135.181 37.3307C135.212 37.2848 135.228 37.2309 135.228 37.1757C135.228 37.1018 135.199 37.0308 135.146 36.9785C135.094 36.9262 135.023 36.8967 134.949 36.8967Z" fill="#3D3646"/>
<path opacity="0.2" d="M134.949 38.3873C134.71 38.3873 134.475 38.3163 134.276 38.1831C134.077 38.0502 133.922 37.861 133.83 37.6396C133.739 37.4183 133.714 37.1748 133.761 36.9399C133.808 36.7049 133.923 36.489 134.093 36.3197C134.262 36.1503 134.478 36.0349 134.713 35.988C134.948 35.9414 135.191 35.9655 135.413 36.0571C135.634 36.1488 135.823 36.3041 135.956 36.5032C136.089 36.7024 136.16 36.9367 136.16 37.1761C136.16 37.4973 136.033 37.8055 135.806 38.0325C135.579 38.2598 135.27 38.3873 134.949 38.3873ZM134.949 36.71C134.857 36.71 134.767 36.7372 134.69 36.7886C134.614 36.8397 134.554 36.9126 134.519 36.9979C134.483 37.0829 134.474 37.1767 134.492 37.2671C134.51 37.3574 134.554 37.4405 134.62 37.5058C134.685 37.5708 134.768 37.6152 134.858 37.6333C134.949 37.6514 135.042 37.6419 135.128 37.6067C135.213 37.5715 135.286 37.5119 135.337 37.4351C135.388 37.3584 135.415 37.2683 135.415 37.1761C135.415 37.0524 135.366 36.9338 135.279 36.8466C135.191 36.7591 135.073 36.71 134.949 36.71Z" fill="#3D3646"/>
<path d="M131.425 122.783C131.296 122.783 131.17 122.745 131.062 122.673C130.955 122.601 130.871 122.499 130.821 122.38C130.772 122.261 130.759 122.129 130.784 122.002C130.809 121.876 130.872 121.759 130.963 121.668C131.055 121.577 131.171 121.514 131.297 121.489C131.424 121.464 131.555 121.477 131.675 121.526C131.794 121.576 131.896 121.659 131.968 121.767C132.04 121.874 132.078 122.001 132.078 122.13C132.078 122.303 132.009 122.469 131.887 122.592C131.764 122.714 131.598 122.783 131.425 122.783ZM131.425 121.851C131.37 121.851 131.316 121.867 131.27 121.898C131.224 121.929 131.188 121.972 131.167 122.023C131.146 122.074 131.14 122.13 131.151 122.184C131.162 122.238 131.189 122.288 131.228 122.327C131.267 122.366 131.316 122.393 131.371 122.404C131.425 122.414 131.481 122.409 131.532 122.388C131.583 122.366 131.626 122.331 131.657 122.285C131.688 122.239 131.704 122.185 131.704 122.13C131.703 122.056 131.673 121.986 131.621 121.935C131.569 121.883 131.498 121.854 131.425 121.854V121.851Z" fill="#3D3646"/>
<path opacity="0.2" d="M131.425 123.341C131.185 123.341 130.951 123.27 130.752 123.137C130.553 123.004 130.398 122.815 130.306 122.594C130.214 122.372 130.19 122.129 130.237 121.894C130.284 121.659 130.399 121.443 130.568 121.274C130.738 121.104 130.954 120.989 131.189 120.942C131.424 120.896 131.667 120.919 131.888 121.011C132.11 121.103 132.299 121.258 132.432 121.457C132.565 121.657 132.636 121.891 132.636 122.13C132.636 122.451 132.509 122.76 132.281 122.987C132.054 123.214 131.746 123.341 131.425 123.341ZM131.425 121.664C131.333 121.664 131.243 121.691 131.166 121.743C131.089 121.794 131.029 121.867 130.994 121.952C130.959 122.037 130.95 122.131 130.968 122.221C130.986 122.312 131.03 122.395 131.095 122.46C131.16 122.525 131.243 122.569 131.334 122.587C131.424 122.605 131.518 122.596 131.603 122.561C131.688 122.526 131.761 122.466 131.812 122.389C131.864 122.313 131.891 122.223 131.891 122.13C131.891 122.007 131.842 121.888 131.754 121.8C131.667 121.713 131.549 121.664 131.425 121.664Z" fill="#3D3646"/>
<path d="M131.425 136.438C131.296 136.438 131.17 136.4 131.062 136.328C130.955 136.256 130.871 136.154 130.821 136.035C130.772 135.916 130.759 135.784 130.784 135.658C130.809 135.531 130.872 135.414 130.963 135.323C131.055 135.232 131.171 135.17 131.297 135.144C131.424 135.119 131.555 135.132 131.675 135.182C131.794 135.231 131.896 135.315 131.968 135.422C132.04 135.53 132.078 135.656 132.078 135.785C132.078 135.958 132.009 136.124 131.887 136.247C131.764 136.369 131.598 136.438 131.425 136.438ZM131.425 135.506C131.37 135.506 131.316 135.523 131.27 135.553C131.224 135.584 131.188 135.627 131.167 135.678C131.146 135.729 131.14 135.785 131.151 135.84C131.162 135.894 131.189 135.943 131.228 135.982C131.267 136.021 131.316 136.048 131.371 136.059C131.425 136.069 131.481 136.064 131.532 136.043C131.583 136.022 131.626 135.986 131.657 135.94C131.688 135.894 131.704 135.84 131.704 135.785C131.702 135.712 131.672 135.643 131.62 135.592C131.568 135.541 131.498 135.512 131.425 135.512V135.506Z" fill="#3D3646"/>
<path opacity="0.2" d="M131.425 137.004C131.185 137.004 130.951 136.933 130.752 136.799C130.553 136.666 130.398 136.477 130.306 136.256C130.214 136.034 130.19 135.791 130.237 135.556C130.284 135.321 130.399 135.105 130.568 134.936C130.738 134.766 130.954 134.651 131.189 134.604C131.424 134.558 131.667 134.581 131.888 134.673C132.11 134.765 132.299 134.92 132.432 135.119C132.565 135.319 132.636 135.553 132.636 135.792C132.636 136.114 132.509 136.421 132.281 136.649C132.054 136.876 131.746 137.004 131.425 137.004ZM131.425 135.326C131.333 135.326 131.243 135.354 131.166 135.405C131.089 135.456 131.029 135.529 130.994 135.614C130.959 135.699 130.95 135.793 130.968 135.883C130.986 135.974 131.03 136.056 131.095 136.122C131.16 136.187 131.243 136.232 131.334 136.249C131.424 136.267 131.518 136.258 131.603 136.223C131.688 136.187 131.761 136.128 131.812 136.051C131.864 135.975 131.891 135.884 131.891 135.792C131.891 135.669 131.842 135.55 131.754 135.463C131.667 135.375 131.549 135.326 131.425 135.326Z" fill="#3D3646"/>
<path d="M131.425 150.107C131.296 150.107 131.17 150.069 131.062 149.997C130.955 149.925 130.871 149.823 130.821 149.704C130.772 149.585 130.759 149.453 130.784 149.326C130.809 149.2 130.872 149.084 130.963 148.992C131.055 148.901 131.171 148.838 131.297 148.813C131.424 148.788 131.555 148.801 131.675 148.851C131.794 148.9 131.896 148.984 131.968 149.091C132.04 149.199 132.078 149.325 132.078 149.454C132.078 149.627 132.009 149.794 131.887 149.916C131.764 150.038 131.598 150.107 131.425 150.107ZM131.425 149.175C131.37 149.175 131.316 149.191 131.27 149.222C131.224 149.253 131.188 149.296 131.167 149.347C131.146 149.398 131.14 149.454 131.151 149.508C131.162 149.563 131.189 149.612 131.228 149.651C131.267 149.69 131.316 149.717 131.371 149.728C131.425 149.738 131.481 149.733 131.532 149.712C131.583 149.691 131.626 149.655 131.657 149.609C131.688 149.563 131.704 149.509 131.704 149.454C131.704 149.38 131.675 149.309 131.622 149.257C131.57 149.204 131.499 149.175 131.425 149.175Z" fill="#3D3646"/>
<path opacity="0.2" d="M131.425 150.666C131.185 150.666 130.951 150.594 130.752 150.462C130.553 150.328 130.398 150.139 130.306 149.918C130.214 149.697 130.19 149.453 130.237 149.218C130.284 148.983 130.399 148.768 130.568 148.598C130.738 148.429 130.954 148.313 131.189 148.267C131.424 148.22 131.667 148.244 131.888 148.335C132.11 148.427 132.299 148.582 132.432 148.781C132.565 148.981 132.636 149.215 132.636 149.454C132.636 149.776 132.509 150.084 132.281 150.311C132.054 150.538 131.746 150.666 131.425 150.666ZM131.425 148.988C131.333 148.988 131.243 149.016 131.166 149.067C131.089 149.118 131.029 149.191 130.994 149.276C130.959 149.361 130.95 149.455 130.968 149.545C130.986 149.636 131.03 149.719 131.095 149.784C131.16 149.849 131.243 149.894 131.334 149.912C131.424 149.93 131.518 149.92 131.603 149.885C131.688 149.85 131.761 149.79 131.812 149.713C131.864 149.637 131.891 149.547 131.891 149.454C131.891 149.331 131.842 149.212 131.754 149.125C131.667 149.037 131.549 148.988 131.425 148.988Z" fill="#3D3646"/>
<path d="M131.425 163.767C131.296 163.767 131.17 163.729 131.062 163.657C130.955 163.586 130.871 163.483 130.821 163.364C130.772 163.245 130.759 163.113 130.784 162.987C130.809 162.86 130.872 162.744 130.963 162.652C131.055 162.561 131.171 162.499 131.297 162.474C131.424 162.448 131.555 162.461 131.675 162.511C131.794 162.56 131.896 162.644 131.968 162.751C132.04 162.859 132.078 162.985 132.078 163.114C132.078 163.288 132.009 163.454 131.887 163.576C131.764 163.698 131.598 163.767 131.425 163.767ZM131.425 162.835C131.37 162.835 131.316 162.852 131.27 162.882C131.224 162.913 131.188 162.956 131.167 163.008C131.146 163.058 131.14 163.114 131.151 163.169C131.162 163.223 131.189 163.272 131.228 163.312C131.267 163.351 131.316 163.377 131.371 163.388C131.425 163.398 131.481 163.393 131.532 163.372C131.583 163.351 131.626 163.315 131.657 163.269C131.688 163.223 131.704 163.169 131.704 163.114C131.704 163.04 131.675 162.969 131.622 162.917C131.57 162.865 131.499 162.835 131.425 162.835Z" fill="#3D3646"/>
<path opacity="0.2" d="M131.425 164.341C131.185 164.341 130.951 164.27 130.752 164.137C130.553 164.004 130.398 163.815 130.306 163.594C130.214 163.372 130.19 163.129 130.237 162.894C130.284 162.659 130.399 162.443 130.568 162.274C130.738 162.104 130.954 161.989 131.189 161.942C131.424 161.895 131.667 161.919 131.888 162.011C132.11 162.103 132.299 162.258 132.432 162.457C132.565 162.656 132.636 162.891 132.636 163.13C132.636 163.451 132.509 163.759 132.281 163.987C132.054 164.214 131.746 164.341 131.425 164.341ZM131.425 162.664C131.333 162.664 131.243 162.692 131.166 162.743C131.089 162.794 131.029 162.867 130.994 162.952C130.959 163.037 130.95 163.131 130.968 163.221C130.986 163.311 131.03 163.395 131.095 163.46C131.16 163.525 131.243 163.569 131.334 163.587C131.424 163.605 131.518 163.596 131.603 163.561C131.688 163.525 131.761 163.466 131.812 163.389C131.864 163.312 131.891 163.222 131.891 163.13C131.893 163.068 131.882 163.006 131.859 162.948C131.836 162.89 131.802 162.837 131.759 162.792C131.716 162.748 131.664 162.712 131.606 162.688C131.549 162.664 131.487 162.651 131.425 162.651V162.664Z" fill="#3D3646"/>
<path d="M126.144 164.672V137.486C126.132 128.291 129.597 119.432 135.843 112.685C141.975 119.413 145.368 128.192 145.355 137.296V164.637" fill="#ECF2FA"/>
<path d="M137.159 116.323C131.632 122.76 128.595 130.965 128.598 139.45V166.166H126.362V139.45C126.362 130.383 129.833 121.661 136.062 115.073C136.436 115.483 136.801 115.9 137.159 116.323Z" fill="white"/>
<path opacity="0.2" d="M134.313 42.6748H133.568V165.633H134.313V42.6748Z" fill="#3D3646"/>
<path opacity="0.3" d="M135.804 42.6748H135.059V165.633H135.804V42.6748Z" fill="white"/>
<path d="M131.425 51.242C131.296 51.242 131.17 51.2036 131.062 51.1319C130.955 51.06 130.871 50.9579 130.821 50.8386C130.772 50.7194 130.759 50.5878 130.784 50.4613C130.809 50.3345 130.872 50.2181 130.963 50.1268C131.055 50.0355 131.171 49.9733 131.297 49.948C131.424 49.9229 131.555 49.9359 131.675 49.9851C131.794 50.0345 131.896 50.1183 131.968 50.2257C132.04 50.3332 132.078 50.4594 132.078 50.5888C132.078 50.7619 132.009 50.9281 131.887 51.0504C131.764 51.1732 131.598 51.242 131.425 51.242ZM131.425 50.3098C131.37 50.3098 131.316 50.3259 131.27 50.3567C131.224 50.3874 131.188 50.4309 131.167 50.4819C131.146 50.533 131.14 50.5891 131.151 50.643C131.162 50.6972 131.189 50.747 131.228 50.786C131.267 50.825 131.316 50.8516 131.371 50.8624C131.425 50.8732 131.481 50.8675 131.532 50.8466C131.583 50.8253 131.626 50.7895 131.657 50.7438C131.688 50.6979 131.704 50.644 131.704 50.5888C131.703 50.5152 131.673 50.4452 131.621 50.3935C131.569 50.3418 131.498 50.3129 131.425 50.3129V50.3098Z" fill="#3D3646"/>
<path opacity="0.2" d="M131.425 51.8024C131.185 51.8024 130.951 51.7314 130.752 51.5982C130.553 51.465 130.398 51.2761 130.306 51.0548C130.214 50.8334 130.19 50.5896 130.237 50.3547C130.284 50.1197 130.399 49.9041 130.568 49.7348C130.738 49.5651 130.954 49.4497 131.189 49.4031C131.424 49.3565 131.667 49.3803 131.888 49.4719C132.11 49.5639 132.299 49.7189 132.432 49.918C132.565 50.1175 132.636 50.3515 132.636 50.5912C132.636 50.9124 132.509 51.2203 132.281 51.4476C132.054 51.6746 131.746 51.8024 131.425 51.8024ZM131.425 50.1251C131.333 50.1251 131.243 50.1524 131.166 50.2034C131.089 50.2548 131.029 50.3277 130.994 50.4127C130.959 50.498 130.95 50.5915 130.968 50.6819C130.986 50.7726 131.03 50.8556 131.095 50.9206C131.16 50.986 131.243 51.0303 131.334 51.0481C131.424 51.0662 131.518 51.057 131.603 51.0218C131.688 50.9866 131.761 50.9267 131.812 50.8499C131.864 50.7735 131.891 50.6831 131.891 50.5912C131.891 50.4675 131.842 50.349 131.754 50.2614C131.667 50.1742 131.549 50.1251 131.425 50.1251Z" fill="#3D3646"/>
<path d="M137.944 55.3405C137.815 55.3405 137.689 55.3024 137.581 55.2305C137.474 55.1588 137.39 55.0567 137.341 54.9375C137.291 54.8179 137.278 54.6867 137.303 54.5599C137.328 54.4333 137.391 54.317 137.482 54.2257C137.574 54.1343 137.69 54.0719 137.816 54.0468C137.943 54.0215 138.075 54.0345 138.194 54.0839C138.313 54.1334 138.415 54.2171 138.487 54.3246C138.559 54.4321 138.597 54.5583 138.597 54.6873C138.597 54.7732 138.58 54.8582 138.547 54.9375C138.515 55.0168 138.466 55.0887 138.406 55.1493C138.345 55.2099 138.273 55.258 138.194 55.291C138.115 55.3237 138.03 55.3405 137.944 55.3405ZM137.944 54.4083C137.889 54.4083 137.835 54.4248 137.789 54.4555C137.743 54.486 137.707 54.5297 137.686 54.5808C137.665 54.6315 137.659 54.6876 137.67 54.7419C137.681 54.7961 137.708 54.8459 137.747 54.8849C137.786 54.9239 137.835 54.9505 137.89 54.9609C137.944 54.9717 138 54.9663 138.051 54.9451C138.102 54.9242 138.145 54.8883 138.176 54.8424C138.207 54.7967 138.223 54.7425 138.223 54.6873C138.223 54.6134 138.194 54.5424 138.141 54.4901C138.089 54.4378 138.018 54.4083 137.944 54.4083Z" fill="#3D3646"/>
<path opacity="0.2" d="M137.944 55.9018C137.704 55.9018 137.47 55.8308 137.271 55.698C137.072 55.5648 136.917 55.3755 136.825 55.1542C136.733 54.9329 136.709 54.6894 136.756 54.4544C136.803 54.2195 136.918 54.0035 137.087 53.8342C137.257 53.6649 137.473 53.5495 137.708 53.5029C137.943 53.4559 138.186 53.48 138.407 53.5717C138.629 53.6633 138.818 53.8187 138.951 54.0178C139.084 54.2169 139.155 54.4512 139.155 54.6906C139.155 55.0118 139.028 55.32 138.8 55.5474C138.573 55.7744 138.265 55.9018 137.944 55.9018ZM137.944 54.2245C137.852 54.2245 137.762 54.2521 137.685 54.3032C137.608 54.3545 137.549 54.4271 137.513 54.5124C137.478 54.5974 137.469 54.6913 137.487 54.7816C137.505 54.872 137.549 54.9551 137.614 55.0204C137.679 55.0854 137.763 55.1298 137.853 55.1479C137.943 55.1659 138.037 55.1567 138.122 55.1212C138.207 55.086 138.28 55.0264 138.331 54.9497C138.383 54.8729 138.41 54.7829 138.41 54.6906C138.41 54.5673 138.361 54.4487 138.273 54.3612C138.186 54.2737 138.068 54.2245 137.944 54.2245Z" fill="#3D3646"/>
<path d="M137.944 101.729C137.815 101.729 137.689 101.691 137.581 101.619C137.474 101.547 137.39 101.445 137.341 101.326C137.291 101.207 137.278 101.075 137.303 100.949C137.328 100.822 137.391 100.706 137.482 100.614C137.574 100.523 137.69 100.461 137.816 100.436C137.943 100.41 138.075 100.423 138.194 100.473C138.313 100.522 138.415 100.606 138.487 100.713C138.559 100.82 138.597 100.947 138.597 101.076C138.597 101.249 138.528 101.415 138.406 101.538C138.283 101.66 138.117 101.729 137.944 101.729ZM137.944 100.797C137.889 100.797 137.835 100.813 137.789 100.844C137.743 100.875 137.707 100.918 137.686 100.969C137.665 101.02 137.659 101.076 137.67 101.131C137.681 101.185 137.708 101.234 137.747 101.273C137.786 101.312 137.835 101.339 137.89 101.35C137.944 101.36 138 101.355 138.051 101.334C138.102 101.313 138.145 101.277 138.176 101.231C138.207 101.185 138.223 101.131 138.223 101.076C138.222 101.003 138.192 100.932 138.14 100.881C138.088 100.829 138.017 100.8 137.944 100.8V100.797Z" fill="#3D3646"/>
<path opacity="0.2" d="M137.944 102.29C137.704 102.29 137.47 102.219 137.271 102.085C137.072 101.952 136.917 101.763 136.825 101.542C136.733 101.321 136.709 101.077 136.756 100.842C136.803 100.607 136.918 100.391 137.087 100.222C137.257 100.053 137.473 99.9372 137.708 99.8906C137.943 99.8436 138.186 99.8677 138.407 99.9594C138.629 100.051 138.818 100.206 138.951 100.405C139.084 100.605 139.155 100.839 139.155 101.078C139.155 101.4 139.028 101.708 138.8 101.935C138.573 102.162 138.265 102.29 137.944 102.29ZM137.944 100.612C137.852 100.612 137.762 100.639 137.685 100.691C137.608 100.742 137.549 100.815 137.513 100.9C137.478 100.985 137.469 101.079 137.487 101.169C137.505 101.26 137.549 101.343 137.614 101.408C137.679 101.473 137.763 101.517 137.853 101.536C137.943 101.554 138.037 101.544 138.122 101.509C138.207 101.474 138.28 101.414 138.331 101.337C138.383 101.261 138.41 101.171 138.41 101.078C138.41 101.017 138.399 100.956 138.375 100.899C138.352 100.842 138.318 100.79 138.275 100.747C138.231 100.703 138.18 100.669 138.123 100.645C138.066 100.621 138.005 100.609 137.944 100.609V100.612Z" fill="#3D3646"/>
<path d="M138.147 111.231C138.018 111.231 137.892 111.193 137.784 111.121C137.677 111.049 137.593 110.947 137.543 110.828C137.494 110.709 137.481 110.577 137.506 110.451C137.532 110.324 137.594 110.207 137.685 110.116C137.777 110.025 137.893 109.963 138.02 109.937C138.146 109.912 138.278 109.925 138.397 109.975C138.516 110.024 138.618 110.108 138.69 110.215C138.762 110.322 138.8 110.449 138.8 110.578C138.8 110.751 138.731 110.917 138.609 111.04C138.486 111.162 138.32 111.231 138.147 111.231ZM138.147 110.299C138.092 110.299 138.038 110.315 137.992 110.346C137.946 110.377 137.91 110.42 137.889 110.471C137.868 110.522 137.862 110.578 137.873 110.633C137.884 110.686 137.911 110.736 137.95 110.775C137.989 110.814 138.038 110.841 138.093 110.852C138.147 110.862 138.203 110.857 138.254 110.836C138.305 110.815 138.348 110.779 138.379 110.733C138.41 110.687 138.426 110.633 138.426 110.578C138.426 110.504 138.397 110.433 138.344 110.381C138.292 110.328 138.221 110.299 138.147 110.299Z" fill="#3D3646"/>
<path opacity="0.2" d="M138.147 111.79C137.908 111.79 137.673 111.719 137.474 111.585C137.275 111.453 137.12 111.263 137.028 111.042C136.936 110.821 136.912 110.577 136.959 110.342C137.006 110.107 137.121 109.891 137.291 109.722C137.46 109.553 137.676 109.437 137.911 109.39C138.146 109.344 138.389 109.368 138.61 109.459C138.832 109.551 139.021 109.706 139.154 109.906C139.287 110.105 139.358 110.339 139.358 110.578C139.358 110.9 139.231 111.208 139.003 111.435C138.776 111.662 138.468 111.79 138.147 111.79ZM138.147 110.112C138.055 110.112 137.965 110.14 137.888 110.191C137.811 110.242 137.752 110.315 137.716 110.4C137.681 110.485 137.672 110.579 137.69 110.669C137.708 110.76 137.752 110.843 137.817 110.908C137.882 110.973 137.966 111.018 138.056 111.036C138.147 111.054 138.24 111.044 138.325 111.009C138.41 110.974 138.483 110.914 138.534 110.837C138.586 110.761 138.613 110.671 138.613 110.578C138.61 110.456 138.56 110.34 138.473 110.255C138.386 110.17 138.269 110.122 138.147 110.122V110.112Z" fill="#3D3646"/>
<path d="M130.854 99.1226C130.725 99.1226 130.599 99.0845 130.491 99.0125C130.384 98.9409 130.3 98.8388 130.251 98.7196C130.201 98.6 130.188 98.4688 130.213 98.3423C130.239 98.2154 130.301 98.0991 130.392 98.0078C130.484 97.9164 130.6 97.854 130.727 97.8289C130.853 97.8039 130.985 97.8165 131.104 97.866C131.223 97.9155 131.325 97.9992 131.397 98.1067C131.469 98.2142 131.507 98.3404 131.507 98.4694C131.507 98.6428 131.438 98.809 131.316 98.9314C131.194 99.0538 131.027 99.1226 130.854 99.1226ZM130.854 98.1904C130.799 98.1904 130.745 98.2069 130.699 98.2376C130.653 98.2681 130.617 98.3118 130.596 98.3629C130.575 98.4136 130.57 98.4697 130.58 98.5239C130.591 98.5782 130.618 98.6279 130.657 98.6669C130.696 98.7059 130.745 98.7326 130.8 98.7434C130.854 98.7538 130.91 98.7484 130.961 98.7272C131.012 98.7063 131.055 98.6704 131.086 98.6245C131.117 98.5788 131.133 98.5246 131.133 98.4694C131.133 98.3955 131.104 98.3245 131.051 98.2722C130.999 98.2199 130.928 98.1904 130.854 98.1904Z" fill="#3D3646"/>
<path opacity="0.2" d="M130.854 99.6813C130.615 99.6813 130.38 99.6103 130.181 99.4771C129.982 99.344 129.827 99.155 129.735 98.9337C129.643 98.7124 129.619 98.4685 129.666 98.2336C129.713 97.9986 129.828 97.783 129.998 97.6137C130.167 97.4441 130.383 97.3286 130.618 97.282C130.853 97.2354 131.096 97.2592 131.318 97.3508C131.539 97.4428 131.728 97.5978 131.861 97.797C131.994 97.9964 132.065 98.2304 132.065 98.4701C132.065 98.7913 131.938 99.0992 131.71 99.3265C131.483 99.5535 131.175 99.6813 130.854 99.6813ZM130.854 98.004C130.762 98.004 130.672 98.0313 130.595 98.0823C130.518 98.1337 130.459 98.2066 130.423 98.2916C130.388 98.3769 130.379 98.4704 130.397 98.5608C130.415 98.6515 130.459 98.7345 130.525 98.7995C130.59 98.8649 130.673 98.9093 130.763 98.927C130.854 98.9451 130.947 98.9359 131.032 98.9007C131.117 98.8655 131.19 98.8056 131.241 98.7288C131.293 98.6524 131.32 98.5621 131.32 98.4701C131.32 98.3464 131.271 98.2279 131.184 98.1403C131.096 98.0532 130.978 98.004 130.854 98.004Z" fill="#3D3646"/>
<path d="M130.854 108.622C130.725 108.622 130.599 108.584 130.491 108.512C130.384 108.44 130.3 108.338 130.251 108.219C130.201 108.099 130.188 107.968 130.213 107.841C130.239 107.714 130.301 107.598 130.392 107.507C130.484 107.415 130.6 107.353 130.727 107.328C130.853 107.303 130.985 107.316 131.104 107.365C131.223 107.414 131.325 107.498 131.397 107.606C131.469 107.713 131.507 107.839 131.507 107.968C131.507 108.142 131.438 108.308 131.316 108.43C131.194 108.553 131.027 108.622 130.854 108.622ZM130.854 107.689C130.799 107.689 130.745 107.706 130.699 107.737C130.653 107.767 130.617 107.811 130.596 107.862C130.575 107.913 130.57 107.969 130.58 108.023C130.591 108.077 130.618 108.127 130.657 108.166C130.696 108.205 130.745 108.232 130.8 108.242C130.854 108.253 130.91 108.247 130.961 108.226C131.012 108.205 131.055 108.169 131.086 108.123C131.117 108.078 131.133 108.024 131.133 107.968C131.132 107.895 131.103 107.825 131.05 107.773C130.998 107.722 130.927 107.693 130.854 107.693V107.689Z" fill="#3D3646"/>
<path opacity="0.2" d="M130.854 109.17C130.615 109.17 130.38 109.099 130.181 108.967C129.982 108.833 129.827 108.644 129.735 108.423C129.643 108.201 129.619 107.958 129.666 107.723C129.713 107.488 129.828 107.272 129.998 107.103C130.167 106.933 130.383 106.818 130.618 106.771C130.853 106.725 131.096 106.749 131.318 106.84C131.539 106.932 131.728 107.087 131.861 107.286C131.994 107.485 132.065 107.72 132.065 107.959C132.065 108.28 131.938 108.589 131.71 108.816C131.483 109.043 131.175 109.17 130.854 109.17ZM130.854 107.493C130.762 107.493 130.672 107.521 130.595 107.572C130.518 107.623 130.459 107.696 130.423 107.781C130.388 107.866 130.379 107.96 130.397 108.05C130.415 108.141 130.459 108.224 130.525 108.289C130.59 108.354 130.673 108.398 130.763 108.416C130.854 108.434 130.947 108.425 131.032 108.39C131.117 108.355 131.19 108.295 131.241 108.218C131.293 108.141 131.32 108.051 131.32 107.959C131.317 107.838 131.266 107.723 131.179 107.638C131.092 107.553 130.975 107.506 130.854 107.506V107.493Z" fill="#3D3646"/>
<path d="M131.612 131.538C131.483 131.538 131.356 131.499 131.249 131.428C131.142 131.356 131.058 131.254 131.008 131.135C130.959 131.015 130.946 130.884 130.971 130.757C130.996 130.63 131.059 130.514 131.15 130.423C131.242 130.331 131.358 130.269 131.484 130.244C131.611 130.219 131.743 130.232 131.862 130.281C131.981 130.331 132.083 130.414 132.155 130.522C132.227 130.629 132.265 130.755 132.265 130.885C132.265 131.058 132.196 131.224 132.074 131.347C131.951 131.469 131.785 131.538 131.612 131.538ZM131.612 130.606C131.557 130.606 131.503 130.622 131.457 130.653C131.411 130.683 131.375 130.727 131.354 130.778C131.333 130.829 131.327 130.885 131.338 130.939C131.349 130.993 131.376 131.043 131.415 131.082C131.454 131.121 131.503 131.148 131.557 131.158C131.612 131.169 131.668 131.163 131.719 131.142C131.77 131.121 131.813 131.085 131.844 131.04C131.874 130.994 131.891 130.94 131.891 130.885C131.89 130.811 131.86 130.741 131.808 130.689C131.756 130.638 131.685 130.609 131.612 130.609V130.606Z" fill="#3D3646"/>
<path opacity="0.2" d="M131.612 132.099C131.372 132.099 131.138 132.028 130.939 131.895C130.74 131.762 130.584 131.573 130.493 131.352C130.401 131.13 130.377 130.887 130.424 130.652C130.471 130.417 130.586 130.201 130.755 130.032C130.925 129.862 131.141 129.747 131.376 129.7C131.61 129.653 131.854 129.677 132.075 129.769C132.297 129.861 132.486 130.016 132.619 130.215C132.752 130.414 132.823 130.648 132.823 130.888C132.823 131.209 132.696 131.517 132.468 131.744C132.241 131.971 131.933 132.099 131.612 132.099ZM131.612 130.422C131.52 130.422 131.429 130.449 131.353 130.501C131.276 130.552 131.216 130.624 131.181 130.709C131.146 130.795 131.137 130.889 131.155 130.979C131.173 131.069 131.217 131.152 131.282 131.217C131.347 131.283 131.43 131.327 131.521 131.345C131.611 131.363 131.705 131.354 131.79 131.319C131.875 131.283 131.948 131.223 132 131.147C132.051 131.07 132.078 130.98 132.078 130.888C132.079 130.826 132.067 130.765 132.044 130.708C132.021 130.651 131.987 130.598 131.944 130.554C131.9 130.51 131.849 130.475 131.792 130.452C131.735 130.428 131.674 130.416 131.612 130.416V130.422Z" fill="#3D3646"/>
<path d="M131.612 158.739C131.483 158.739 131.356 158.701 131.249 158.629C131.142 158.557 131.058 158.455 131.008 158.336C130.959 158.216 130.946 158.085 130.971 157.958C130.996 157.831 131.059 157.715 131.15 157.624C131.242 157.532 131.358 157.47 131.484 157.445C131.611 157.42 131.743 157.433 131.862 157.482C131.981 157.532 132.083 157.616 132.155 157.723C132.227 157.83 132.265 157.957 132.265 158.086C132.265 158.259 132.196 158.425 132.074 158.548C131.951 158.67 131.785 158.739 131.612 158.739ZM131.612 157.807C131.557 157.807 131.503 157.823 131.457 157.854C131.411 157.884 131.375 157.928 131.354 157.979C131.333 158.03 131.327 158.086 131.338 158.14C131.349 158.194 131.376 158.244 131.415 158.283C131.454 158.322 131.503 158.349 131.557 158.359C131.612 158.37 131.668 158.365 131.719 158.344C131.77 158.322 131.813 158.287 131.844 158.241C131.874 158.195 131.891 158.141 131.891 158.086C131.891 158.012 131.861 157.941 131.809 157.889C131.757 157.836 131.686 157.807 131.612 157.807Z" fill="#3D3646"/>
<path opacity="0.2" d="M131.612 159.297C131.372 159.297 131.138 159.226 130.939 159.093C130.74 158.96 130.584 158.771 130.493 158.55C130.401 158.328 130.377 158.085 130.424 157.85C130.471 157.615 130.586 157.399 130.755 157.23C130.925 157.06 131.141 156.945 131.376 156.898C131.61 156.851 131.854 156.876 132.075 156.967C132.297 157.059 132.486 157.214 132.619 157.413C132.752 157.612 132.823 157.847 132.823 158.086C132.823 158.407 132.696 158.716 132.468 158.943C132.241 159.17 131.933 159.297 131.612 159.297ZM131.612 157.62C131.52 157.62 131.429 157.647 131.353 157.699C131.276 157.75 131.216 157.823 131.181 157.908C131.146 157.993 131.137 158.087 131.155 158.177C131.173 158.268 131.217 158.351 131.282 158.416C131.347 158.481 131.43 158.525 131.521 158.543C131.611 158.561 131.705 158.552 131.79 158.517C131.875 158.482 131.948 158.422 132 158.345C132.051 158.268 132.078 158.178 132.078 158.086C132.078 157.962 132.029 157.844 131.942 157.757C131.854 157.669 131.735 157.62 131.612 157.62Z" fill="#3D3646"/>
<path d="M131.612 145.14C131.483 145.14 131.356 145.102 131.249 145.03C131.142 144.959 131.058 144.857 131.008 144.737C130.959 144.618 130.946 144.486 130.971 144.36C130.996 144.233 131.059 144.117 131.15 144.025C131.242 143.934 131.358 143.872 131.484 143.847C131.611 143.821 131.743 143.834 131.862 143.884C131.981 143.933 132.083 144.017 132.155 144.124C132.227 144.232 132.265 144.358 132.265 144.487C132.265 144.661 132.196 144.827 132.074 144.949C131.951 145.071 131.785 145.14 131.612 145.14ZM131.612 144.208C131.557 144.208 131.503 144.225 131.457 144.255C131.411 144.286 131.375 144.33 131.354 144.381C131.333 144.431 131.327 144.487 131.338 144.542C131.349 144.596 131.376 144.645 131.415 144.685C131.454 144.724 131.503 144.75 131.557 144.761C131.612 144.772 131.668 144.766 131.719 144.745C131.77 144.724 131.813 144.688 131.844 144.642C131.874 144.596 131.891 144.542 131.891 144.487C131.891 144.413 131.861 144.342 131.809 144.29C131.757 144.238 131.686 144.208 131.612 144.208Z" fill="#3D3646"/>
<path opacity="0.2" d="M131.612 145.697C131.372 145.697 131.138 145.626 130.939 145.493C130.74 145.36 130.584 145.17 130.493 144.949C130.401 144.728 130.377 144.484 130.424 144.249C130.471 144.014 130.586 143.799 130.755 143.629C130.925 143.46 131.141 143.344 131.376 143.298C131.61 143.251 131.854 143.275 132.075 143.366C132.297 143.458 132.486 143.613 132.619 143.813C132.752 144.012 132.823 144.246 132.823 144.486C132.823 144.807 132.696 145.115 132.468 145.342C132.241 145.569 131.933 145.697 131.612 145.697ZM131.612 144.02C131.52 144.02 131.429 144.047 131.353 144.098C131.276 144.149 131.216 144.222 131.181 144.307C131.146 144.393 131.137 144.486 131.155 144.576C131.173 144.667 131.217 144.75 131.282 144.815C131.347 144.88 131.43 144.925 131.521 144.943C131.611 144.961 131.705 144.952 131.79 144.916C131.875 144.881 131.948 144.821 132 144.744C132.051 144.668 132.078 144.578 132.078 144.486C132.078 144.362 132.029 144.243 131.942 144.156C131.854 144.068 131.735 144.02 131.612 144.02Z" fill="#3D3646"/>
<path d="M137.573 131.538C137.444 131.538 137.318 131.499 137.21 131.428C137.103 131.356 137.019 131.254 136.97 131.135C136.92 131.015 136.907 130.884 136.933 130.757C136.958 130.63 137.02 130.514 137.111 130.423C137.203 130.331 137.319 130.269 137.446 130.244C137.572 130.219 137.704 130.232 137.823 130.281C137.942 130.331 138.045 130.414 138.116 130.522C138.188 130.629 138.226 130.755 138.226 130.885C138.226 131.058 138.157 131.224 138.035 131.347C137.913 131.469 137.746 131.538 137.573 131.538ZM137.573 130.606C137.518 130.606 137.464 130.622 137.418 130.653C137.372 130.683 137.337 130.727 137.315 130.778C137.294 130.829 137.289 130.885 137.299 130.939C137.31 130.993 137.337 131.043 137.376 131.082C137.415 131.121 137.465 131.148 137.519 131.158C137.573 131.169 137.629 131.163 137.68 131.142C137.731 131.121 137.774 131.085 137.805 131.04C137.836 130.994 137.852 130.94 137.852 130.885C137.851 130.811 137.822 130.741 137.769 130.689C137.717 130.638 137.647 130.609 137.573 130.609V130.606Z" fill="#3D3646"/>
<path opacity="0.2" d="M137.573 132.099C137.334 132.099 137.099 132.028 136.9 131.895C136.701 131.762 136.546 131.573 136.454 131.352C136.362 131.13 136.338 130.887 136.385 130.652C136.432 130.417 136.547 130.201 136.717 130.032C136.886 129.862 137.102 129.747 137.337 129.7C137.572 129.653 137.815 129.677 138.037 129.769C138.258 129.861 138.447 130.016 138.58 130.215C138.713 130.414 138.784 130.648 138.784 130.888C138.784 131.209 138.657 131.517 138.429 131.744C138.202 131.971 137.894 132.099 137.573 132.099ZM137.573 130.422C137.481 130.422 137.391 130.449 137.314 130.501C137.237 130.552 137.178 130.624 137.142 130.709C137.107 130.795 137.098 130.889 137.116 130.979C137.134 131.069 137.178 131.152 137.244 131.217C137.309 131.283 137.392 131.327 137.482 131.345C137.573 131.363 137.666 131.354 137.751 131.319C137.836 131.283 137.909 131.223 137.96 131.147C138.012 131.07 138.039 130.98 138.039 130.888C138.04 130.826 138.029 130.765 138.005 130.708C137.982 130.651 137.948 130.598 137.905 130.554C137.861 130.51 137.81 130.475 137.753 130.452C137.696 130.428 137.635 130.416 137.573 130.416V130.422Z" fill="#3D3646"/>
<path d="M137.573 158.739C137.444 158.739 137.318 158.701 137.21 158.629C137.103 158.557 137.019 158.455 136.97 158.336C136.92 158.216 136.907 158.085 136.933 157.958C136.958 157.831 137.02 157.715 137.111 157.624C137.203 157.532 137.319 157.47 137.446 157.445C137.572 157.42 137.704 157.433 137.823 157.482C137.942 157.532 138.045 157.616 138.116 157.723C138.188 157.83 138.226 157.957 138.226 158.086C138.226 158.259 138.157 158.425 138.035 158.548C137.913 158.67 137.746 158.739 137.573 158.739ZM137.573 157.807C137.518 157.807 137.464 157.823 137.418 157.854C137.372 157.884 137.337 157.928 137.315 157.979C137.294 158.03 137.289 158.086 137.299 158.14C137.31 158.194 137.337 158.244 137.376 158.283C137.415 158.322 137.465 158.349 137.519 158.359C137.573 158.37 137.629 158.365 137.68 158.344C137.731 158.322 137.774 158.287 137.805 158.241C137.836 158.195 137.852 158.141 137.852 158.086C137.852 158.012 137.823 157.941 137.771 157.889C137.718 157.836 137.647 157.807 137.573 157.807Z" fill="#3D3646"/>
<path opacity="0.2" d="M137.573 159.297C137.334 159.297 137.099 159.226 136.9 159.093C136.701 158.96 136.546 158.771 136.454 158.55C136.362 158.328 136.338 158.085 136.385 157.85C136.432 157.615 136.547 157.399 136.717 157.23C136.886 157.06 137.102 156.945 137.337 156.898C137.572 156.851 137.815 156.876 138.037 156.967C138.258 157.059 138.447 157.214 138.58 157.413C138.713 157.612 138.784 157.847 138.784 158.086C138.784 158.407 138.657 158.716 138.429 158.943C138.202 159.17 137.894 159.297 137.573 159.297ZM137.573 157.62C137.481 157.62 137.391 157.647 137.314 157.699C137.237 157.75 137.178 157.823 137.142 157.908C137.107 157.993 137.098 158.087 137.116 158.177C137.134 158.268 137.178 158.351 137.244 158.416C137.309 158.481 137.392 158.525 137.482 158.543C137.573 158.561 137.666 158.552 137.751 158.517C137.836 158.482 137.909 158.422 137.96 158.345C138.012 158.268 138.039 158.178 138.039 158.086C138.039 158.025 138.027 157.964 138.004 157.908C137.98 157.851 137.946 157.8 137.903 157.757C137.859 157.713 137.808 157.679 137.751 157.656C137.695 157.632 137.634 157.62 137.573 157.62Z" fill="#3D3646"/>
<path d="M137.573 145.14C137.444 145.14 137.318 145.102 137.21 145.03C137.103 144.959 137.019 144.857 136.97 144.737C136.92 144.618 136.907 144.486 136.933 144.36C136.958 144.233 137.02 144.117 137.111 144.025C137.203 143.934 137.319 143.872 137.446 143.847C137.572 143.821 137.704 143.834 137.823 143.884C137.942 143.933 138.045 144.017 138.116 144.124C138.188 144.232 138.226 144.358 138.226 144.487C138.226 144.661 138.157 144.827 138.035 144.949C137.913 145.071 137.746 145.14 137.573 145.14ZM137.573 144.208C137.518 144.208 137.464 144.225 137.418 144.255C137.372 144.286 137.337 144.33 137.315 144.381C137.294 144.431 137.289 144.487 137.299 144.542C137.31 144.596 137.337 144.645 137.376 144.685C137.415 144.724 137.465 144.75 137.519 144.761C137.573 144.772 137.629 144.766 137.68 144.745C137.731 144.724 137.774 144.688 137.805 144.642C137.836 144.596 137.852 144.542 137.852 144.487C137.852 144.413 137.823 144.342 137.771 144.29C137.718 144.238 137.647 144.208 137.573 144.208Z" fill="#3D3646"/>
<path opacity="0.2" d="M137.573 145.697C137.334 145.697 137.099 145.626 136.9 145.493C136.701 145.36 136.546 145.17 136.454 144.949C136.362 144.728 136.338 144.484 136.385 144.249C136.432 144.014 136.547 143.799 136.717 143.629C136.886 143.46 137.102 143.344 137.337 143.298C137.572 143.251 137.815 143.275 138.037 143.366C138.258 143.458 138.447 143.613 138.58 143.813C138.713 144.012 138.784 144.246 138.784 144.486C138.784 144.807 138.657 145.115 138.429 145.342C138.202 145.569 137.894 145.697 137.573 145.697ZM137.573 144.02C137.481 144.02 137.391 144.047 137.314 144.098C137.237 144.149 137.178 144.222 137.142 144.307C137.107 144.393 137.098 144.486 137.116 144.576C137.134 144.667 137.178 144.75 137.244 144.815C137.309 144.88 137.392 144.925 137.482 144.943C137.573 144.961 137.666 144.952 137.751 144.916C137.836 144.881 137.909 144.821 137.96 144.744C138.012 144.668 138.039 144.578 138.039 144.486C138.039 144.425 138.027 144.364 138.004 144.307C137.98 144.251 137.946 144.199 137.903 144.156C137.859 144.113 137.808 144.078 137.751 144.055C137.695 144.032 137.634 144.02 137.573 144.02Z" fill="#3D3646"/>
<path d="M135.481 114.56H134.736V165.047H135.481V114.56Z" fill="#3D3646"/>
<path opacity="0.2" d="M134.497 117.006H133.752V165.071H134.497V117.006Z" fill="#3D3646"/>
<path opacity="0.8" d="M135.988 117.006H135.242V164.884H135.988V117.006Z" fill="white"/>
<path d="M146.442 176.902H122.782C120.188 176.899 117.702 175.868 115.868 174.034C114.034 172.2 113.003 169.713 113 167.12V165.722H156.223V167.12C156.221 169.713 155.19 172.2 153.356 174.034C151.522 175.868 149.035 176.899 146.442 176.902ZM115.936 168.518C116.26 170.095 117.118 171.512 118.365 172.531C119.612 173.549 121.172 174.106 122.782 174.108H146.442C148.052 174.106 149.612 173.549 150.859 172.531C152.106 171.512 152.964 170.095 153.287 168.518H115.936Z" fill="#3D3646"/>
<path d="M160.93 43.3842H108.899L109.533 40.5908H160.613L160.93 43.3842Z" fill="#3D3646"/>
<path d="M154.012 167.401H115.294C112.875 167.401 110.706 166.326 109.634 164.595C105.534 157.936 96 137.675 96 93.1581C96 49.5288 118.985 17.5836 128.868 5.87406C129.579 5.0312 130.466 4.35377 131.466 3.88906C132.465 3.42435 133.555 3.18359 134.658 3.18359C135.76 3.18359 136.85 3.42435 137.85 3.88906C138.85 4.35377 139.736 5.0312 140.447 5.87406C150.327 17.5836 173.315 49.5288 173.306 93.1581C173.306 137.666 163.771 157.942 159.671 164.595C158.616 166.323 156.437 167.401 154.012 167.401ZM134.648 5.9787C133.522 5.97793 132.432 6.37681 131.572 7.10431C131.367 7.27816 131.175 7.46907 131.002 7.67504C121.318 19.1499 98.7934 50.4483 98.7934 93.1581C98.7934 112.249 100.563 128.88 104.05 142.59C106.926 153.89 110.271 160.308 112.012 163.127C112.558 164.011 113.88 164.604 115.294 164.604H154.012C155.435 164.604 156.751 164.011 157.29 163.13C159.031 160.305 162.363 153.884 165.255 142.587C168.743 128.876 170.512 112.246 170.512 93.1549C170.512 50.4483 148 19.1499 138.31 7.67504C137.906 7.19423 137.411 6.7982 136.853 6.50976C136.296 6.22135 135.686 6.04623 135.06 5.99455C134.923 5.98399 134.785 5.9787 134.648 5.9787Z" fill="#3D3646"/>
<path d="M126.793 165.08H124V138.363C123.984 128.936 127.592 119.863 134.08 113.023L135.104 111.941L136.119 113.029C142.49 119.849 146.029 128.837 146.018 138.17V165.038H143.224V138.176C143.233 130.074 140.345 122.236 135.082 116.076C129.719 122.26 126.773 130.174 126.787 138.36L126.793 165.08Z" fill="#3D3646"/>
<path opacity="0.2" d="M136.147 95.5811C144.842 95.5811 151.89 88.5329 151.89 79.8384C151.89 71.1439 144.842 64.0957 136.147 64.0957C127.453 64.0957 120.405 71.1439 120.405 79.8384C120.405 88.5329 127.453 95.5811 136.147 95.5811Z" fill="#3D3646"/>
<path d="M135.743 89.8076C144.437 89.8076 151.485 82.7594 151.485 74.065C151.485 65.3705 144.437 58.3223 135.743 58.3223C127.048 58.3223 120 65.3705 120 74.065C120 82.7594 127.048 89.8076 135.743 89.8076Z" fill="#ECF2FA"/>
<path opacity="0.2" d="M136.147 88.8789C133.439 88.8789 130.791 88.0757 128.539 86.5709C126.287 85.0661 124.532 82.9274 123.495 80.4251C122.459 77.9228 122.188 75.1693 122.716 72.5128C123.244 69.8564 124.549 67.4162 126.464 65.5011C128.379 63.586 130.819 62.2815 133.475 61.7533C136.132 61.225 138.885 61.4961 141.388 62.5327C143.89 63.5692 146.029 65.3242 147.534 67.5763C149.038 69.8285 149.842 72.4761 149.842 75.1845C149.838 78.8156 148.394 82.2968 145.827 84.8641C143.259 87.4318 139.778 88.8757 136.147 88.8789ZM136.147 62.4255C133.623 62.4255 131.156 63.1741 129.057 64.5762C126.958 65.9786 125.322 67.9717 124.356 70.3038C123.391 72.6359 123.138 75.2019 123.63 77.6773C124.123 80.153 125.338 82.4271 127.123 84.2119C128.908 85.9967 131.182 87.2124 133.657 87.7048C136.133 88.1972 138.699 87.9445 141.031 86.9784C143.363 86.0126 145.356 84.3768 146.759 82.2781C148.161 80.1794 148.909 77.7119 148.909 75.1877C148.907 71.8036 147.561 68.5583 145.169 66.165C142.776 63.7718 139.532 62.4258 136.147 62.4223V62.4255Z" fill="#3D3646"/>
<path d="M146.514 76.1951C146.385 76.1951 146.259 76.1567 146.152 76.085C146.044 76.0131 145.961 75.9113 145.911 75.7918C145.862 75.6725 145.849 75.5413 145.874 75.4144C145.899 75.2876 145.961 75.1712 146.052 75.0799C146.144 74.9886 146.26 74.9265 146.387 74.9011C146.514 74.876 146.645 74.889 146.764 74.9385C146.884 74.988 146.986 75.0717 147.058 75.1789C147.129 75.2863 147.168 75.4125 147.168 75.5419C147.168 75.715 147.099 75.8812 146.976 76.0039C146.854 76.1263 146.688 76.1951 146.514 76.1951ZM146.514 75.2629C146.459 75.2629 146.405 75.2794 146.359 75.3098C146.313 75.3406 146.278 75.384 146.257 75.4351C146.235 75.4861 146.23 75.5422 146.241 75.5964C146.252 75.6503 146.278 75.7001 146.317 75.7391C146.356 75.7781 146.406 75.8048 146.46 75.8155C146.514 75.8263 146.57 75.8209 146.621 75.7997C146.672 75.7784 146.716 75.7429 146.747 75.6969C146.777 75.651 146.793 75.5971 146.793 75.5419C146.79 75.4702 146.76 75.4024 146.708 75.3526C146.656 75.3031 146.586 75.2756 146.514 75.2756V75.2629Z" fill="#3D3646"/>
<path opacity="0.2" d="M146.514 76.7661C146.275 76.7661 146.04 76.6951 145.841 76.5619C145.642 76.4291 145.487 76.2398 145.395 76.0184C145.304 75.7971 145.279 75.5536 145.326 75.3187C145.373 75.0837 145.488 74.8678 145.658 74.6985C145.827 74.5292 146.043 74.4137 146.278 74.3671C146.513 74.3202 146.756 74.3443 146.978 74.4359C147.199 74.5276 147.388 74.6829 147.521 74.8821C147.654 75.0812 147.725 75.3155 147.725 75.5549C147.725 75.8761 147.598 76.1843 147.371 76.4113C147.144 76.6386 146.835 76.7661 146.514 76.7661ZM146.514 75.0888C146.422 75.0888 146.332 75.1161 146.255 75.1674C146.179 75.2185 146.119 75.2914 146.084 75.3767C146.048 75.4617 146.039 75.5555 146.057 75.6459C146.075 75.7363 146.119 75.8193 146.185 75.8846C146.25 75.9496 146.333 75.994 146.423 76.0121C146.514 76.0302 146.607 76.021 146.693 75.9855C146.778 75.9503 146.851 75.8907 146.902 75.8139C146.953 75.7372 146.98 75.6472 146.98 75.5549C146.98 75.4937 146.968 75.4331 146.945 75.3767C146.922 75.3199 146.887 75.2686 146.844 75.2254C146.8 75.182 146.749 75.1478 146.693 75.1243C146.636 75.1008 146.575 75.0888 146.514 75.0888Z" fill="#3D3646"/>
<path d="M136.147 92.8803C132.647 92.8803 129.225 91.8426 126.314 89.8976C123.404 87.953 121.135 85.1888 119.795 81.9546C118.456 78.7205 118.105 75.162 118.788 71.7287C119.471 68.2954 121.157 65.1415 123.632 62.6664C126.107 60.191 129.261 58.5055 132.694 57.8225C136.128 57.1395 139.686 57.4902 142.921 58.8298C146.154 60.1692 148.919 62.4378 150.864 65.3486C152.808 68.259 153.846 71.6808 153.846 75.1813C153.841 79.874 151.975 84.3729 148.657 87.6911C145.339 91.0093 140.84 92.8756 136.147 92.8803ZM136.147 61.395C133.421 61.395 130.755 62.2038 128.488 63.7185C126.221 65.2335 124.454 67.3864 123.41 69.9055C122.367 72.4247 122.094 75.1968 122.626 77.871C123.158 80.5452 124.471 83.0019 126.399 84.93C128.327 86.8578 130.783 88.1708 133.458 88.7029C136.132 89.2349 138.904 88.9619 141.423 87.9185C143.942 86.875 146.095 85.1079 147.61 82.8408C149.125 80.5735 149.934 77.9081 149.934 75.1813C149.928 71.527 148.474 68.0237 145.89 65.4399C143.305 62.856 139.802 61.4026 136.147 61.3981V61.395Z" fill="#3D3646"/>
</svg>
