<svg width="24" height="30" viewBox="0 0 24 30" fill="none" xmlns="http://www.w3.org/2000/svg">
<path fill-rule="evenodd" clip-rule="evenodd" d="M11.8551 0.813456V0.771545C11.5952 3.49811 7.62931 8.69978 6.27381 10.2097C3.285 13.5398 0.0854492 16.6136 0.0854492 21.9231C0.0854492 25.5585 2.60007 28.5521 5.85111 29.0311C8.47949 29.4155 11.3222 27.7809 11.3222 24.6832C11.3247 24.0179 11.1573 23.363 10.836 22.7804C10.2373 21.6932 9.15963 20.8645 7.80054 20.831C5.6212 20.7688 3.57598 22.9014 4.63571 25.2783C3.16286 25.0711 2.31388 23.5133 2.26479 21.6656C2.19893 19.2229 3.70171 17.4483 6.23429 16.6699C10.0601 15.494 11.5569 13.2788 11.8622 8.21362C12.164 13.2788 13.6584 15.494 17.4902 16.6699C20.018 17.4483 21.5256 19.2229 21.4597 21.6656C21.4106 23.5133 20.5616 25.0711 19.0876 25.2783C20.1449 22.9014 18.0997 20.7688 15.9204 20.8298C14.5649 20.8669 13.4884 21.692 12.8849 22.7793C12.5632 23.3617 12.3954 24.0166 12.3975 24.682C12.3975 27.7798 15.2414 29.4143 17.8698 29.0299C21.1256 28.5509 23.6355 25.5573 23.6355 21.9231C23.6355 16.6136 20.4359 13.541 17.4471 10.2097C16.0916 8.69978 12.1245 3.5041 11.867 0.771545L11.8551 0.813456Z" fill="white"/>
</svg>
