<svg width="73" height="20" viewBox="0 0 73 20" fill="none" xmlns="http://www.w3.org/2000/svg">
<g>
<path fill-rule="evenodd" clip-rule="evenodd" d="M21.6518 19.2811C22.3066 19.45 22.9731 19.5892 23.6383 19.7C24.7273 19.8922 25.8312 19.9876 26.9371 19.9849C28.3899 19.9669 30.1405 19.7142 31.2658 18.6958C32.1463 17.9043 32.4531 16.8202 32.4479 15.6574L32.4415 14.077C32.4415 13.9919 32.4415 13.9056 32.4415 13.8192V13.8063C32.4415 12.6667 32.4325 11.5285 32.3822 10.3902C32.3216 9.04439 31.8666 7.84553 30.7708 7.02437C29.3722 5.97634 27.3238 5.82294 25.648 6.00986L25.3992 6.03822V2.86189C25.3992 2.39653 25.3012 1.93503 24.9957 1.5728C24.6605 1.17576 24.15 0.986259 23.6563 0.894733C22.9734 0.789201 22.2791 0.780522 21.5938 0.868952C21.5925 7.00633 21.6518 13.1437 21.6518 19.2811ZM25.5951 8.78141C26.0963 8.68726 26.6071 8.65394 27.1163 8.68215C27.5022 8.6999 27.8727 8.83933 28.1746 9.08048C28.7611 9.5858 28.8295 10.5191 28.8295 11.2423V16.2878C28.8328 16.5051 28.7699 16.7182 28.649 16.8988C28.0805 17.7329 26.4047 17.631 25.5668 17.341L25.4159 17.2894V17.127C25.4018 14.4199 25.4069 11.7128 25.4069 9.00571V8.81235L25.5951 8.78141Z" fill="white"/>
<path fill-rule="evenodd" clip-rule="evenodd" d="M0.736328 19.6356C2.465 20.1035 4.82018 20.3948 5.66067 18.2369L6.65713 15.6793L13.0497 15.6987L13.8941 18.4831C14.4935 20.4593 17.2535 20.0713 18.7707 19.6227L13.3243 2.77936C12.9183 1.52249 12.2273 0.853455 10.9679 0.858611L9.43127 0.870213C8.05194 0.847009 7.37903 1.70039 6.89175 3.01655L0.736328 19.6356ZM12.3111 12.8034H7.56337L10.0578 4.22186L12.3111 12.8034Z" fill="white"/>
<path fill-rule="evenodd" clip-rule="evenodd" d="M57.6178 19.7026L57.601 10.7318C57.601 9.00186 57.1589 7.01021 55.4895 6.25995C54.7276 5.91834 53.7441 5.83198 52.9242 5.87323C51.9677 5.92866 50.5767 6.22386 49.9296 7.03341L49.7143 7.30154L49.5584 6.99345C49.3353 6.55516 48.8945 6.27285 48.4523 6.13362C47.7459 5.9119 46.9492 5.99698 46.2402 6.19292L46.2699 19.7116C46.627 19.7929 46.9866 19.865 47.3489 19.914C48.0785 20.0197 49.1304 20.0777 49.7543 19.5621C50.248 19.1612 50.3524 18.4986 50.3267 17.8863V10.9252C50.3267 10.2574 50.4955 9.56003 50.9364 9.05858C51.2729 8.67185 51.7614 8.43981 52.2642 8.52618C52.4461 8.56062 52.6187 8.63293 52.7708 8.73842C52.9229 8.84391 53.0512 8.98022 53.1472 9.1385C53.405 9.54585 53.4991 10.0602 53.4991 10.5449V17.4351C53.4837 18.1609 53.5894 19.0052 54.1695 19.4861C54.9996 20.1731 56.5917 19.9179 57.6113 19.7026" fill="white"/>
<path fill-rule="evenodd" clip-rule="evenodd" d="M34.842 6.73045C34.7324 7.44332 34.784 8.28639 35.4182 8.73113C35.8346 9.02375 36.3799 9.05469 36.8633 8.96058C37.4697 8.82721 38.0856 8.74101 38.7054 8.70277C39.2081 8.6873 39.7599 8.74273 40.175 9.05855C40.7499 9.49427 40.853 10.2639 40.8285 10.9445L40.8169 11.2706L40.5191 11.1495C39.6148 10.7889 38.6559 10.5841 37.6831 10.5436C36.7498 10.5088 35.707 10.6467 34.9232 11.201C34.5214 11.4828 34.2051 11.87 34.0092 12.32C33.7657 12.9153 33.6574 13.5572 33.6921 14.1995V14.1995L33.6857 15.7954C33.6792 17.0535 33.9357 18.3735 34.9851 19.1728C35.6683 19.6884 36.5526 19.8831 37.3867 19.9462C38.396 20.0275 39.4492 19.9462 40.4508 19.8354C41.174 19.7567 41.8959 19.6626 42.6191 19.5853C43.1992 19.5221 43.7896 19.4667 44.3735 19.4564C44.38 16.4206 44.5025 13.3835 44.3735 10.3476C44.3142 8.98894 43.8669 7.76946 42.7596 6.94573C41.7992 6.23544 40.5449 5.97762 39.3783 5.93508C38.4869 5.908 37.5954 5.98413 36.7215 6.16196C36.077 6.28594 35.4471 6.47646 34.842 6.73045V6.73045ZM40.4302 17.7999C39.946 17.9013 39.4504 17.9368 38.9568 17.9056C38.6029 17.8867 38.2666 17.7454 38.0054 17.506C37.7648 17.2461 37.6088 16.9193 37.5581 16.5688C37.4832 16.1169 37.4512 15.659 37.4627 15.2011V14.7293C37.4627 14.144 37.4885 13.3538 37.9255 12.9155C38.192 12.6706 38.542 12.5369 38.9039 12.5417C39.4332 12.5418 39.9599 12.6155 40.4689 12.7608L40.6416 12.8034L40.6158 17.7664L40.4302 17.7999Z" fill="white"/>
<path fill-rule="evenodd" clip-rule="evenodd" d="M71.295 6.22899C71.2512 6.20836 71.21 6.19032 71.1829 6.18C70.9733 6.09974 70.7578 6.03595 70.5383 5.98922C69.9551 5.85955 69.3576 5.80582 68.7607 5.82937C67.995 5.86289 66.9869 6.05496 66.4841 6.74463L63.1609 11.3183V3.22282C63.1609 2.53058 63.0397 1.76744 62.4944 1.32657C62.0948 1.003 61.5482 0.908898 61.0622 0.883116C60.4751 0.867324 59.8877 0.896629 59.3052 0.970775V19.6704C60.2888 19.9462 61.8021 20.1937 62.6053 19.4551C63.0178 19.0761 63.1505 18.5141 63.1609 17.9533V14.0693L66.8335 18.8698L67.2692 19.4409C67.4522 19.6794 67.9241 19.8044 68.1922 19.8586C68.7226 19.9568 69.2617 20 69.801 19.9875C70.3438 19.9807 70.8856 19.9376 71.4227 19.8586C71.6299 19.8298 71.8355 19.7907 72.0388 19.7413L72.1072 19.7232L66.2933 12.6951L71.295 6.22899Z" fill="white"/>
</g>
</svg>
