<svg width="108" height="31" viewBox="0 0 108 31" fill="none" xmlns="http://www.w3.org/2000/svg">
<path fill-rule="evenodd" clip-rule="evenodd" d="M14.8551 0.813456V0.771545C14.5952 3.49811 10.6293 8.69978 9.27381 10.2097C6.285 13.5398 3.08545 16.6136 3.08545 21.9231C3.08545 25.5585 5.60007 28.5521 8.85111 29.0311C11.4795 29.4155 14.3222 27.7809 14.3222 24.6832C14.3247 24.0179 14.1573 23.363 13.836 22.7804C13.2373 21.6932 12.1596 20.8645 10.8005 20.831C8.6212 20.7688 6.57598 22.9014 7.63571 25.2783C6.16286 25.0711 5.31388 23.5133 5.26479 21.6656C5.19893 19.2229 6.70171 17.4483 9.23429 16.6699C13.0601 15.494 14.5569 13.2788 14.8622 8.21362C15.164 13.2788 16.6584 15.494 20.4902 16.6699C23.018 17.4483 24.5256 19.2229 24.4597 21.6656C24.4106 23.5133 23.5616 25.0711 22.0876 25.2783C23.1449 22.9014 21.0997 20.7688 18.9204 20.8298C17.5649 20.8669 16.4884 21.692 15.8849 22.7793C15.5632 23.3617 15.3954 24.0166 15.3975 24.682C15.3975 27.7798 18.2414 29.4143 20.8698 29.0299C24.1256 28.5509 26.6355 25.5573 26.6355 21.9231C26.6355 16.6136 23.4359 13.541 20.4471 10.2097C19.0916 8.69978 15.1245 3.5041 14.867 0.771545L14.8551 0.813456Z" fill="white"/>
<path fill-rule="evenodd" clip-rule="evenodd" d="M54.6518 24.2811C55.3066 24.45 55.9731 24.5892 56.6383 24.7C57.7273 24.8922 58.8312 24.9876 59.9371 24.9849C61.3899 24.9669 63.1405 24.7142 64.2658 23.6958C65.1463 22.9043 65.4531 21.8202 65.4479 20.6574L65.4415 19.077C65.4415 18.9919 65.4415 18.9056 65.4415 18.8192V18.8063C65.4415 17.6667 65.4325 16.5285 65.3822 15.3902C65.3216 14.0444 64.8666 12.8455 63.7708 12.0244C62.3722 10.9763 60.3238 10.8229 58.648 11.0099L58.3992 11.0382V7.86189C58.3992 7.39653 58.3012 6.93503 57.9957 6.5728C57.6605 6.17576 57.15 5.98626 56.6563 5.89473C55.9734 5.7892 55.2791 5.78052 54.5938 5.86895C54.5925 12.0063 54.6518 18.1437 54.6518 24.2811ZM58.5951 13.7814C59.0963 13.6873 59.6071 13.6539 60.1163 13.6821C60.5022 13.6999 60.8727 13.8393 61.1746 14.0805C61.7611 14.5858 61.8295 15.5191 61.8295 16.2423V21.2878C61.8328 21.5051 61.7699 21.7182 61.649 21.8988C61.0805 22.7329 59.4047 22.631 58.5668 22.341L58.4159 22.2894V22.127C58.4018 19.4199 58.4069 16.7128 58.4069 14.0057V13.8123L58.5951 13.7814Z" fill="white"/>
<path fill-rule="evenodd" clip-rule="evenodd" d="M33.7363 24.6356C35.465 25.1035 37.8202 25.3948 38.6607 23.2369L39.6571 20.6793L46.0497 20.6987L46.8941 23.4831C47.4935 25.4593 50.2535 25.0713 51.7707 24.6227L46.3243 7.77936C45.9183 6.52249 45.2273 5.85345 43.9679 5.85861L42.4313 5.87021C41.0519 5.84701 40.379 6.70039 39.8918 8.01655L33.7363 24.6356ZM45.3111 17.8034H40.5634L43.0578 9.22186L45.3111 17.8034Z" fill="white"/>
<path fill-rule="evenodd" clip-rule="evenodd" d="M90.6178 24.7026L90.601 15.7318C90.601 14.0019 90.1589 12.0102 88.4895 11.26C87.7276 10.9183 86.7441 10.832 85.9242 10.8732C84.9677 10.9287 83.5767 11.2239 82.9296 12.0334L82.7143 12.3015L82.5584 11.9934C82.3353 11.5552 81.8945 11.2728 81.4523 11.1336C80.7459 10.9119 79.9492 10.997 79.2402 11.1929L79.2699 24.7116C79.627 24.7929 79.9866 24.865 80.3489 24.914C81.0785 25.0197 82.1304 25.0777 82.7543 24.5621C83.248 24.1612 83.3524 23.4986 83.3267 22.8863V15.9252C83.3267 15.2574 83.4955 14.56 83.9364 14.0586C84.2729 13.6718 84.7614 13.4398 85.2642 13.5262C85.4461 13.5606 85.6187 13.6329 85.7708 13.7384C85.9229 13.8439 86.0512 13.9802 86.1472 14.1385C86.405 14.5459 86.4991 15.0602 86.4991 15.5449V22.4351C86.4837 23.1609 86.5894 24.0052 87.1695 24.4861C87.9996 25.1731 89.5917 24.9179 90.6113 24.7026" fill="white"/>
<path fill-rule="evenodd" clip-rule="evenodd" d="M67.842 11.7305C67.7324 12.4433 67.784 13.2864 68.4182 13.7311C68.8346 14.0238 69.3799 14.0547 69.8633 13.9606C70.4697 13.8272 71.0856 13.741 71.7054 13.7028C72.2081 13.6873 72.7599 13.7427 73.175 14.0586C73.7499 14.4943 73.853 15.2639 73.8285 15.9445L73.8169 16.2706L73.5191 16.1495C72.6148 15.7889 71.6559 15.5841 70.6831 15.5436C69.7498 15.5088 68.707 15.6467 67.9232 16.201C67.5214 16.4828 67.2051 16.87 67.0092 17.32C66.7657 17.9153 66.6574 18.5572 66.6921 19.1995L66.6857 20.7954C66.6792 22.0535 66.9357 23.3735 67.9851 24.1728C68.6683 24.6884 69.5526 24.8831 70.3867 24.9462C71.396 25.0275 72.4492 24.9462 73.4508 24.8354C74.174 24.7567 74.8959 24.6626 75.6191 24.5853C76.1992 24.5221 76.7896 24.4667 77.3735 24.4564C77.38 21.4206 77.5024 18.3835 77.3735 15.3476C77.3142 13.9889 76.8669 12.7695 75.7596 11.9457C74.7992 11.2354 73.5449 10.9776 72.3783 10.9351C71.4869 10.908 70.5954 10.9841 69.7215 11.162C69.077 11.2859 68.4471 11.4765 67.842 11.7305ZM73.4302 22.7999C72.946 22.9013 72.4504 22.9368 71.9568 22.9056C71.6029 22.8867 71.2666 22.7454 71.0054 22.506C70.7648 22.2461 70.6088 21.9193 70.5581 21.5688C70.4832 21.1169 70.4512 20.659 70.4627 20.2011V19.7293C70.4627 19.144 70.4885 18.3538 70.9255 17.9155C71.192 17.6706 71.542 17.5369 71.9039 17.5417C72.4332 17.5418 72.9599 17.6155 73.4689 17.7608L73.6416 17.8034L73.6158 22.7664L73.4302 22.7999Z" fill="white"/>
<path fill-rule="evenodd" clip-rule="evenodd" d="M104.295 11.229C104.251 11.2084 104.21 11.1903 104.183 11.18C103.973 11.0997 103.758 11.0359 103.538 10.9892C102.955 10.8595 102.358 10.8058 101.761 10.8294C100.995 10.8629 99.9869 11.055 99.4841 11.7446L96.1609 16.3183V8.22282C96.1609 7.53058 96.0397 6.76744 95.4944 6.32657C95.0948 6.003 94.5482 5.9089 94.0622 5.88312C93.4751 5.86732 92.8877 5.89663 92.3052 5.97077V24.6704C93.2888 24.9462 94.8021 25.1937 95.6053 24.4551C96.0178 24.0761 96.1505 23.5141 96.1609 22.9533V19.0693L99.8335 23.8698L100.269 24.4409C100.452 24.6794 100.924 24.8044 101.192 24.8586C101.723 24.9568 102.262 25 102.801 24.9875C103.344 24.9807 103.886 24.9376 104.423 24.8586C104.63 24.8298 104.836 24.7907 105.039 24.7413L105.107 24.7232L99.2933 17.6951L104.295 11.229Z" fill="white"/>
</svg>
