<svg width="20" height="20" viewBox="0 0 20 20" fill="none" xmlns="http://www.w3.org/2000/svg">
<path d="M11.9282 16.923C11.7804 16.9235 11.6344 16.8909 11.5009 16.8276C11.3674 16.7642 11.2497 16.6718 11.1566 16.5571L6.37884 10.6236C6.23335 10.4466 6.15381 10.2247 6.15381 9.99562C6.15381 9.76656 6.23335 9.54461 6.37884 9.36766L11.3248 3.43415C11.4927 3.2322 11.734 3.1052 11.9955 3.08109C12.2571 3.05698 12.5175 3.13774 12.7195 3.30559C12.9215 3.47345 13.0486 3.71466 13.0727 3.97616C13.0968 4.23765 13.016 4.49801 12.8481 4.69997L8.42646 10.0006L12.6998 15.3012C12.8207 15.4463 12.8976 15.6231 12.9212 15.8105C12.9448 15.998 12.9142 16.1883 12.833 16.3589C12.7519 16.5295 12.6235 16.6733 12.4632 16.7733C12.3028 16.8732 12.1172 16.9252 11.9282 16.923Z" fill="black"/>
</svg>
