<svg width="28" height="28" viewBox="0 0 28 28" fill="none" xmlns="http://www.w3.org/2000/svg">
<path d="M25.4823 13.492C24.41 8.91612 22.7962 6.47379 20.4022 5.80666C19.899 5.66734 19.377 5.59774 18.8526 5.60003C18.1594 5.60003 17.5558 5.75942 16.9172 5.92835C16.1477 6.13211 15.2736 6.36356 13.999 6.36356C12.7244 6.36356 11.8498 6.13259 11.0787 5.92882C10.4397 5.75942 9.83651 5.60003 9.14538 5.60003C8.6031 5.59826 8.0632 5.66764 7.54116 5.80618C5.15986 6.47045 3.54704 8.91182 2.45902 13.4892C1.2891 18.4149 1.86496 21.5248 4.07386 22.2463C4.37664 22.3471 4.69523 22.399 5.01627 22.4C6.52948 22.4 7.74289 21.2103 8.57205 20.2363C9.50889 19.134 10.6055 18.5747 13.999 18.5747C17.03 18.5747 18.2843 18.9627 19.3678 20.2363C20.0488 21.0371 20.6924 21.5973 21.3345 21.95C22.1885 22.4186 23.0419 22.5226 23.8705 22.254C25.176 21.8335 25.9242 20.7221 26.0951 18.9498C26.225 17.5907 26.0248 15.8055 25.4823 13.492ZM11.5722 13.2353H9.95431V14.7623C9.95431 14.9648 9.86909 15.159 9.71738 15.3022C9.56568 15.4454 9.35992 15.5259 9.14538 15.5259C8.93084 15.5259 8.72508 15.4454 8.57337 15.3022C8.42167 15.159 8.33644 14.9648 8.33644 14.7623V13.2353H6.71857C6.50403 13.2353 6.29827 13.1548 6.14657 13.0117C5.99486 12.8685 5.90964 12.6743 5.90964 12.4718C5.90964 12.2693 5.99486 12.0751 6.14657 11.9319C6.29827 11.7887 6.50403 11.7082 6.71857 11.7082H8.33644V10.1812C8.33644 9.97868 8.42167 9.78448 8.57337 9.64129C8.72508 9.4981 8.93084 9.41766 9.14538 9.41766C9.35992 9.41766 9.56568 9.4981 9.71738 9.64129C9.86909 9.78448 9.95431 9.97868 9.95431 10.1812V11.7082H11.5722C11.7867 11.7082 11.9925 11.7887 12.1442 11.9319C12.2959 12.0751 12.3811 12.2693 12.3811 12.4718C12.3811 12.6743 12.2959 12.8685 12.1442 13.0117C11.9925 13.1548 11.7867 13.2353 11.5722 13.2353ZM15.8191 13.4262C15.6191 13.4262 15.4236 13.3702 15.2573 13.2653C15.091 13.1604 14.9614 13.0114 14.8849 12.837C14.8084 12.6626 14.7883 12.4707 14.8274 12.2856C14.8664 12.1004 14.9627 11.9304 15.1041 11.7969C15.2455 11.6634 15.4257 11.5725 15.6218 11.5357C15.818 11.4989 16.0213 11.5178 16.2061 11.59C16.3908 11.6622 16.5487 11.7846 16.6599 11.9415C16.771 12.0985 16.8303 12.283 16.8303 12.4718C16.8303 12.7249 16.7237 12.9676 16.5341 13.1466C16.3445 13.3256 16.0873 13.4262 15.8191 13.4262ZM18.0437 15.5259C17.8436 15.5259 17.648 15.4698 17.4816 15.3648C17.3153 15.2599 17.1857 15.1107 17.1092 14.9361C17.0328 14.7616 17.0129 14.5696 17.0521 14.3844C17.0913 14.1992 17.1879 14.0291 17.3296 13.8957C17.4712 13.7624 17.6516 13.6717 17.848 13.6351C18.0443 13.5985 18.2477 13.6178 18.4324 13.6904C18.6171 13.763 18.7749 13.8857 18.8857 14.043C18.9965 14.2002 19.0553 14.385 19.0548 14.5738C19.0542 14.8266 18.9473 15.0687 18.7578 15.2472C18.5682 15.4256 18.3114 15.5259 18.0437 15.5259ZM18.0437 11.3265C17.8437 11.3265 17.6482 11.2705 17.4819 11.1656C17.3156 11.0608 17.186 10.9117 17.1095 10.7373C17.0329 10.5629 17.0129 10.371 17.0519 10.1859C17.0909 10.0007 17.1872 9.83067 17.3287 9.6972C17.4701 9.56372 17.6503 9.47282 17.8464 9.436C18.0425 9.39917 18.2459 9.41807 18.4306 9.49031C18.6154 9.56255 18.7733 9.68487 18.8844 9.84183C18.9955 9.99878 19.0548 10.1833 19.0548 10.3721C19.0548 10.6252 18.9483 10.8679 18.7587 11.0469C18.569 11.2259 18.3118 11.3265 18.0437 11.3265ZM20.2682 13.4262C20.0683 13.4262 19.8728 13.3702 19.7065 13.2653C19.5402 13.1604 19.4106 13.0114 19.334 12.837C19.2575 12.6626 19.2375 12.4707 19.2765 12.2856C19.3155 12.1004 19.4118 11.9304 19.5532 11.7969C19.6947 11.6634 19.8748 11.5725 20.071 11.5357C20.2671 11.4989 20.4704 11.5178 20.6552 11.59C20.84 11.6622 20.9979 11.7846 21.109 11.9415C21.2201 12.0985 21.2794 12.283 21.2794 12.4718C21.2794 12.7249 21.1729 12.9676 20.9832 13.1466C20.7936 13.3256 20.5364 13.4262 20.2682 13.4262Z" fill="#772BD8"/>
</svg>
