<svg width="28" height="28" viewBox="0 0 28 28" fill="none" xmlns="http://www.w3.org/2000/svg">
<path d="M25.0236 12.8895L21.9789 11.1229C24.9125 8.623 21.9678 3.95656 18.4453 5.54537L17.4786 5.95646L17.3564 4.88985C17.2453 3.68991 16.623 2.8344 15.8007 2.33442C13.9784 1.27558 11.2004 2.0011 10.7559 4.64542L7.70015 2.88995C6.6334 2.26776 5.27776 2.63441 4.6666 3.70102L3.55541 5.62315C3.24428 6.15646 3.43318 6.8342 3.96655 7.1453L12.6227 12.1451L14.2895 9.2563L16.2118 10.3674L14.5451 13.2561L23.2012 18.2559C23.7346 18.5336 24.4235 18.3781 24.7236 17.8448L25.8347 15.9226C26.4459 14.856 26.0903 13.5005 25.0236 12.8895ZM14.3228 6.312C13.3561 6.58977 12.5783 5.55648 13.0672 4.70097C13.3561 4.16766 14.0561 3.98989 14.5895 4.28988C15.4451 4.78986 15.2785 6.07868 14.3228 6.312ZM20.0899 9.64517C19.1343 9.92294 18.3564 8.88965 18.8454 8.03414C19.1454 7.50083 19.8343 7.32306 20.3566 7.62305C21.2122 8.12303 21.0455 9.41185 20.0899 9.64517ZM23.7679 19.5114C24.2235 19.5114 24.6569 19.3558 25.0236 19.0892V22.9779C25.0236 24.2111 24.0346 25.2 22.8012 25.2H5.02218C4.43277 25.2 3.8675 24.9659 3.45072 24.5491C3.03395 24.1324 2.7998 23.5672 2.7998 22.9779V12.9783H11.856L12.8005 13.5339V22.9779H15.0229V14.8116L22.6567 19.2114C22.9901 19.4114 23.3568 19.5114 23.7679 19.5114Z" fill="#772BD8"/>
</svg>
