<svg width="35" height="26" viewBox="0 0 35 26" fill="none" xmlns="http://www.w3.org/2000/svg">
<path d="M2.42677 1.80274C1.65346 1.22828 2.05976 0 3.02309 0H25C30.5228 0 35 4.47715 35 10V24.0114C35 24.8333 34.0635 25.3043 33.4037 24.8142L2.42677 1.80274Z" fill="#862FE0"/>
<path d="M29.7451 6.63919C30.085 6.2639 30.085 5.65677 29.7451 5.28147C29.4051 4.90618 28.8552 4.90618 28.5153 5.28147L23.624 10.6803L21.4847 8.32098C21.1448 7.94568 20.5949 7.94568 20.2549 8.32098C19.915 8.69627 19.915 9.30341 20.2549 9.6787L23.0092 12.7182C23.1785 12.9065 23.4025 13 23.624 13C23.8468 13 24.0696 12.9065 24.2389 12.7182L29.7451 6.63919Z" fill="white"/>
</svg>
