<svg width="28" height="28" viewBox="0 0 28 28" fill="none" xmlns="http://www.w3.org/2000/svg">
<g clip-path="url(#clip0_285_1548)">
<path fill-rule="evenodd" clip-rule="evenodd" d="M7.50626 21.2362C7.6702 21.0723 7.89255 20.9802 8.12439 20.9802H11.6211C11.8529 20.9802 12.0752 21.0723 12.2392 21.2362C12.4031 21.4002 12.4952 21.6225 12.4952 21.8544C12.4952 22.0862 12.4031 22.3086 12.2392 22.4725C12.0752 22.6364 11.8529 22.7285 11.6211 22.7285H8.12439C7.89255 22.7285 7.6702 22.6364 7.50626 22.4725C7.34232 22.3086 7.25023 22.0862 7.25023 21.8544C7.25023 21.6225 7.34232 21.4002 7.50626 21.2362ZM3.77553 2.64467C4.34931 2.07088 5.12752 1.74854 5.93898 1.74854H13.8065C14.6179 1.74854 15.3961 2.07088 15.9699 2.64467C16.5039 3.17866 16.8201 3.88972 16.8614 4.63984C16.2555 4.78667 15.6722 4.99139 15.1177 5.24782V4.80812C15.1177 4.46035 14.9796 4.12683 14.7337 3.88092C14.4878 3.63502 14.1542 3.49687 13.8065 3.49687H5.93898C5.59121 3.49687 5.25769 3.63502 5.01178 3.88092C4.76588 4.12683 4.62773 4.46035 4.62773 4.80812V23.1656C4.62773 23.5134 4.76588 23.8469 5.01178 24.0928C5.25769 24.3387 5.59121 24.4769 5.93898 24.4769H13.8065C14.1542 24.4769 14.4878 24.3387 14.7337 24.0928C14.9796 23.8469 15.1177 23.5134 15.1177 23.1656V22.5597C15.6736 22.8168 16.2585 23.0219 16.8661 23.1688C16.8652 23.9791 16.543 24.756 15.9699 25.3291C15.3961 25.9028 14.6179 26.2252 13.8065 26.2252H5.93898C4.25009 26.2252 2.87939 24.8545 2.87939 23.1656V4.80812C2.87939 3.99667 3.20174 3.21845 3.77553 2.64467Z" fill="#772BD8"/>
<path d="M19.5229 17.0235H19.9876C20.4523 17.0235 20.8383 16.6089 20.8383 16.1085C20.8383 15.4866 20.6167 15.3651 20.2521 15.2364L19.5301 14.9862V17.0235H19.5229Z" fill="#772BD8"/>
<path d="M18.965 7.00142C15.019 7.01571 11.8236 10.2254 11.8379 14.1713C11.8522 18.1173 15.0619 21.3127 19.0079 21.2984C22.9538 21.2841 26.1492 18.0744 26.1349 14.1285C26.1206 10.1825 22.9109 6.99427 18.965 7.00142ZM20.602 14.2214C21.1596 14.4144 21.9102 14.829 21.9102 16.1086C21.9102 17.2095 21.0452 18.0959 19.9872 18.0959H19.5226V18.5105C19.5226 18.8036 19.2795 19.0466 18.9864 19.0466C18.6933 19.0466 18.4503 18.8036 18.4503 18.5105V18.0959H18.1929C17.0206 18.0959 16.0698 17.1094 16.0698 15.8941C16.0698 15.601 16.3129 15.358 16.606 15.358C16.8991 15.358 17.1421 15.601 17.1421 15.8941C17.1421 16.5161 17.6139 17.0236 18.1929 17.0236H18.4503V14.6074L17.3709 14.2214C16.8133 14.0284 16.0627 13.6138 16.0627 12.3342C16.0627 11.2333 16.9277 10.3469 17.9856 10.3469H18.4503V9.9323C18.4503 9.63921 18.6933 9.39616 18.9864 9.39616C19.2795 9.39616 19.5226 9.63921 19.5226 9.9323V10.3469H19.7799C20.9523 10.3469 21.903 11.3334 21.903 12.5486C21.903 12.8417 21.66 13.0848 21.3669 13.0848C21.0738 13.0848 20.8307 12.8417 20.8307 12.5486C20.8307 11.9267 20.3589 11.4192 19.7799 11.4192H19.5226V13.8354L20.602 14.2214Z" fill="#772BD8"/>
<path d="M17.1421 12.3413C17.1421 12.9633 17.3637 13.0848 17.7283 13.2135L18.4503 13.4637V11.4192H17.9856C17.521 11.4192 17.1421 11.8338 17.1421 12.3413Z" fill="#772BD8"/>
</g>
<defs>
<clipPath id="clip0_285_1548">
<rect width="28" height="28" fill="white"/>
</clipPath>
</defs>
</svg>
