<svg width="28" height="28" viewBox="0 0 28 28" fill="none" xmlns="http://www.w3.org/2000/svg">
<path d="M17.7169 21.0524C18.6894 21.2078 19.597 21.42 20.3955 21.6882C19.2572 22.6366 17.9073 23.3381 16.427 23.7084C16.9301 23.0213 17.3655 22.1201 17.7169 21.0524ZM15.2535 4.91958C15.6582 5.43353 16.0443 6.17839 16.3746 7.11897C15.6044 7.19433 14.8098 7.23752 13.9999 7.23752C13.1901 7.23752 12.3954 7.19433 11.6253 7.1187C11.9556 6.17824 12.3417 5.43344 12.7464 4.91952C13.1714 4.37988 13.6003 4.11465 13.9923 4.11125H13.9999C14.394 4.11125 14.8257 4.3764 15.2535 4.91958ZM11.5729 4.29123C11.0696 4.97822 10.6342 5.87962 10.2828 6.94724C9.31033 6.79212 8.40324 6.57965 7.60459 6.31136C8.74274 5.36274 10.0926 4.66156 11.5729 4.29123ZM17.7163 6.94757C17.3652 5.8797 16.9299 4.97828 16.4266 4.29125C17.9071 4.66179 19.257 5.36292 20.395 6.31165C19.5965 6.57999 18.6894 6.79257 17.7163 6.94757ZM9.29994 13.3436H4.0135C4.16383 11.0359 5.09961 8.93879 6.55626 7.31823C7.53404 7.70539 8.67718 8.0084 9.92214 8.2168C9.56083 9.7134 9.34133 11.4525 9.29994 13.3436ZM18.6994 14.6556H23.9858C23.8355 16.9634 22.8997 19.0605 21.443 20.6811C20.4656 20.2943 19.3222 19.9909 18.0772 19.7825C18.4385 18.2857 18.6581 16.5471 18.6994 14.6556ZM13.9998 2.67993C7.75745 2.67993 2.6798 7.75799 2.6798 13.9999C2.6798 20.2419 7.75787 25.3199 13.9998 25.3199C20.2417 25.3199 25.3198 20.2414 25.3198 13.9999C25.3198 7.75757 20.2413 2.67993 13.9998 2.67993ZM21.4439 7.31837C22.9005 8.93933 23.8362 11.0363 23.9865 13.3439H18.6999C18.6582 11.4528 18.439 9.71384 18.0777 8.21705C19.3228 8.00864 20.4663 7.70559 21.4439 7.31837ZM13.9998 23.8884C13.6057 23.8884 13.174 23.6232 12.7463 23.0801C12.3416 22.5661 11.9555 21.8214 11.6252 20.8809C12.3954 20.8055 13.19 20.762 13.9998 20.762C14.8096 20.762 15.6042 20.8057 16.3744 20.8809C16.0441 21.8214 15.658 22.5661 15.2533 23.0801C14.8256 23.6232 14.3939 23.8884 13.9998 23.8884ZM10.2831 21.0523C10.6345 22.12 11.0699 23.0212 11.5733 23.7084C10.0927 23.3378 8.7428 22.6367 7.60474 21.6882C8.40323 21.4199 9.31057 21.2073 10.2831 21.0523ZM13.9999 19.4496C13.0588 19.4496 12.1347 19.5048 11.2425 19.6019C10.8911 18.2091 10.657 16.5338 10.6123 14.6561H17.3871C17.3427 16.5338 17.1083 18.2094 16.7569 19.6019C15.8651 19.5048 14.9411 19.4496 13.9999 19.4496ZM17.388 13.3436H10.6128C10.6575 11.466 10.8916 9.79031 11.243 8.39787C12.1351 8.49492 13.0594 8.55016 14.0004 8.55016C14.9416 8.55016 15.866 8.49493 16.7578 8.39787C17.1092 9.79061 17.3434 11.466 17.388 13.3436ZM6.55581 20.6814C5.09921 19.0604 4.16345 16.9634 4.01316 14.6559H9.29976C9.341 16.5474 9.56096 18.286 9.922 19.7827C8.67688 19.9911 7.53338 20.2942 6.55581 20.6814Z" fill="#772BD8" stroke="#772BD8" stroke-width="0.24"/>
</svg>
