<svg width="18" height="18" viewBox="0 0 18 18" fill="none" xmlns="http://www.w3.org/2000/svg">
<g clip-path="url(#clip0_285_2056)">
<rect width="18" height="18" rx="9" fill="white"/>
<g clip-path="url(#clip1_285_2056)">
<path fill-rule="evenodd" clip-rule="evenodd" d="M-4.76196 0H33.238V1.53908H-4.76196V0ZM-4.76196 3.07812H33.238V4.61721H-4.76196V3.07812ZM-4.76196 6.15233H33.238V7.69529H-4.76196V6.15233ZM-4.76196 9.23046H33.238V10.7695H-4.76196V9.23046ZM-4.76196 12.3086H33.238V13.8477H-4.76196V12.3086ZM-4.76196 15.3828H33.238V16.9219H-4.76196V15.3828ZM-4.76196 18.4609H33.238V20H-4.76196V18.4609Z" fill="#BD3D44"/>
<path fill-rule="evenodd" clip-rule="evenodd" d="M-4.76196 1.53906H33.238V3.0781H-4.76196V1.53906ZM-4.76196 4.61715H33.238V6.15231H-4.76196V4.61715ZM-4.76196 7.6914H33.238V9.23044H-4.76196V7.6914ZM-4.76196 10.7695H33.238V12.3086H-4.76196V10.7695ZM-4.76196 13.8476H33.238V15.3867H-4.76196V13.8476ZM-4.76196 16.9219H33.238V18.4609H-4.76196V16.9219Z" fill="white"/>
<path fill-rule="evenodd" clip-rule="evenodd" d="M-4.76196 0H10.4372V10.7695H-4.76196V0Z" fill="#192F5D"/>
<path fill-rule="evenodd" clip-rule="evenodd" d="M-3.49636 0.460938L-3.35573 0.886646H-2.9104L-3.26982 1.1484L-3.13307 1.57806L-3.49636 1.31244L-3.85573 1.57415L-3.71903 1.1484L-4.08228 0.886646H-3.62915L-3.49636 0.460938ZM-0.961192 0.460938L-0.824484 0.886646H-0.375275L-0.738567 1.1484L-0.601817 1.57806L-0.961192 1.31244L-1.32448 1.57415L-1.18778 1.1484L-1.54715 0.886646H-1.10182L-0.961192 0.460938ZM1.57006 0.460938L1.71068 0.886688H2.1521L1.79272 1.14844L1.92939 1.5781L1.56614 1.31248L1.20677 1.57419L1.34347 1.14844L0.980183 0.886688H1.42943L1.57006 0.460938ZM4.10522 0.460938L4.24189 0.886688H4.69114L4.32785 1.14844L4.46848 1.5781L4.10518 1.31248L3.74193 1.57419L3.88256 1.14844L3.51927 0.886688H3.9646L4.10522 0.460938ZM6.63647 0.460938L6.7771 0.886688H7.22239L6.86302 1.14844L6.99973 1.5781L6.63643 1.31248L6.27706 1.57419L6.41381 1.14844L6.05443 0.886688H6.49973L6.63647 0.460938ZM9.1716 0.460938L9.30831 0.886688H9.75756L9.39427 1.14844L9.53489 1.5781L9.1716 1.31248L8.80831 1.57419L8.94893 1.14844L8.58568 0.886688H9.03489L9.1716 0.460938ZM-2.22682 1.53898L-2.09011 1.96481H-1.6409L-2.00419 2.22648L-1.87136 2.65231L-2.22294 2.39056L-2.58619 2.65227L-2.45732 2.22652L-2.80886 1.96477H-2.36353L-2.22682 1.53898ZM0.304433 1.53898L0.445058 1.96481H0.89035L0.527058 2.22648L0.667725 2.65231L0.304391 2.39056L-0.0588589 2.65227L0.0817661 2.22652L-0.281525 1.96477H0.167683L0.304433 1.53898ZM2.8396 1.53898L2.97627 1.96481H3.42552L3.06222 2.22648L3.19893 2.65231L2.83956 2.39056L2.47631 2.65227L2.61302 2.22656L2.25364 1.96481H2.69897L2.8396 1.53898ZM5.37085 1.53898L5.51147 1.96481H5.95677L5.59348 2.22648L5.7341 2.65231L5.37081 2.39056L5.01143 2.65227L5.14818 2.22652L4.78489 1.96477H5.23802L5.37085 1.53898ZM7.90598 1.53898L8.04268 1.96481H8.49193L8.12864 2.22648L8.26535 2.65231L7.90598 2.39056L7.54268 2.65227L7.67943 2.22652L7.32006 1.96477H7.76535L7.90598 1.53898ZM-3.49636 2.61331L-3.35573 3.0469H-2.9104L-3.26982 3.3086L-3.13307 3.7344L-3.49636 3.46877L-3.85573 3.7344L-3.71903 3.30469L-4.08228 3.04302H-3.62915L-3.49636 2.61331ZM-0.961192 2.61331L-0.824484 3.0429H-0.375275L-0.738567 3.3046L-0.601817 3.73044L-0.961192 3.46477L-1.32448 3.7304L-1.18778 3.30073L-1.54715 3.03902H-1.10182L-0.961192 2.61331ZM1.57006 2.61331L1.71068 3.04298H2.1521L1.79272 3.30469L1.92939 3.73052L1.56614 3.46485L1.20677 3.73048L1.34347 3.30081L0.980183 3.0391H1.42943L1.57006 2.61331ZM4.10522 2.61331L4.24189 3.04298H4.69114L4.32785 3.30469L4.46848 3.73052L4.10518 3.46485L3.74193 3.73048L3.88256 3.30081L3.51927 3.0391H3.9646L4.10522 2.61331ZM6.63647 2.61331L6.7771 3.04298H7.22239L6.86302 3.30465L6.99973 3.73048L6.63643 3.46481L6.27706 3.73044L6.41381 3.30077L6.05443 3.03906H6.49973L6.63647 2.61331ZM9.1716 2.61331L9.30831 3.04298H9.75756L9.39427 3.30469L9.53489 3.73052L9.1716 3.46485L8.80831 3.73048L8.94893 3.30081L8.58568 3.0391H9.03489L9.1716 2.61331ZM-2.22682 3.6914L-2.09011 4.11719H-1.6409L-2.00419 4.37885L-1.86744 4.80856L-2.22682 4.54294L-2.59011 4.80465L-2.4534 4.3789L-2.81278 4.11719H-2.3674L-2.22682 3.6914ZM0.304433 3.6914L0.445058 4.11719H0.89035L0.527058 4.37885L0.667725 4.80856L0.304391 4.54294L-0.0588589 4.80465L0.0817661 4.3789L-0.281525 4.11719H0.167683L0.304433 3.6914ZM2.8396 3.6914L2.97627 4.11719H3.42552L3.06222 4.37885L3.19893 4.80856L2.83956 4.54294L2.47631 4.80465L2.61302 4.3789L2.25364 4.11719H2.69897L2.8396 3.6914ZM5.37085 3.6914L5.51147 4.11719H5.95677L5.59739 4.37885L5.7341 4.80856L5.37081 4.54294L5.01143 4.80465L5.14818 4.3789L4.78489 4.11719H5.23802L5.37085 3.6914ZM7.90598 3.6914L8.04268 4.11719H8.49193L8.12864 4.37885L8.26535 4.80856L7.90598 4.54294L7.54268 4.80465L7.67943 4.3789L7.32006 4.11719H7.76535L7.90598 3.6914ZM-3.49636 4.76952L-3.35573 5.19531H-2.9104L-3.26982 5.45698L-3.13307 5.88669L-3.49636 5.62106L-3.85573 5.88277L-3.71903 5.45702L-4.08228 5.19531H-3.62915L-3.49636 4.76952ZM-0.961192 4.76952L-0.824484 5.19531H-0.375275L-0.738567 5.45698L-0.601817 5.88281L-0.961192 5.62106L-1.32448 5.88277L-1.18778 5.45702L-1.54715 5.19531H-1.10182L-0.961192 4.76952ZM1.57006 4.76952L1.71068 5.19531H2.1521L1.79272 5.45698L1.92939 5.88669L1.56614 5.62106L1.20677 5.88277L1.34347 5.45702L0.980183 5.19531H1.42943L1.57006 4.76952ZM4.10522 4.76952L4.24189 5.19531H4.69114L4.32785 5.45698L4.46848 5.88669L4.10518 5.62106L3.74193 5.88277L3.88256 5.45702L3.51927 5.19531H3.9646L4.10522 4.76952ZM6.63647 4.76952L6.7771 5.19531H7.22239L6.86302 5.45698L6.99973 5.88669L6.63643 5.62106L6.27706 5.88277L6.41381 5.45702L6.05443 5.19531H6.49973L6.63647 4.76952ZM9.1716 4.76952L9.30831 5.19531H9.75756L9.39427 5.45698L9.53489 5.88669L9.1716 5.62106L8.80831 5.88277L8.94893 5.45702L8.58568 5.19531H9.03489L9.1716 4.76952ZM-2.22682 5.84765L-2.09011 6.27344H-1.6409L-2.00419 6.5351L-1.86744 6.96094L-2.22682 6.69531L-2.59011 6.96094L-2.4534 6.53123L-2.81278 6.26952H-2.3674L-2.22682 5.84765ZM0.304433 5.84765L0.445058 6.27344H0.89035L0.527058 6.5351L0.667725 6.96094L0.304391 6.69531L-0.0588589 6.96094L0.0817661 6.53123L-0.281525 6.26952H0.167683L0.304433 5.84765ZM2.8396 5.84765L2.97627 6.27344H3.42552L3.06222 6.5351L3.19893 6.96094L2.83956 6.69531L2.47631 6.96094L2.61302 6.53123L2.25364 6.26952H2.69897L2.8396 5.84765ZM5.37085 5.84765L5.51147 6.27344H5.95677L5.59739 6.5351L5.7341 6.96094L5.37081 6.69531L5.01143 6.96094L5.14818 6.53123L4.78489 6.26952H5.23802L5.37085 5.84765ZM7.90598 5.84765L8.04268 6.27344H8.49193L8.12864 6.5351L8.26535 6.96094L7.90598 6.69531L7.54268 6.96094L7.67943 6.53123L7.32006 6.26952H7.76535L7.90598 5.84765ZM-3.49636 6.92185L-3.35573 7.35156H-2.9104L-3.26982 7.61323L-3.13307 8.03515L-3.49636 7.77344L-3.85573 8.0351L-3.71903 7.60935L-4.08228 7.34765H-3.62915L-3.49636 6.92185ZM-0.961192 6.92185L-0.824484 7.35156H-0.375275L-0.738567 7.61323L-0.5979 8.03515L-0.961234 7.77344L-1.32448 8.0351L-1.18386 7.60935L-1.54715 7.34765H-1.10182L-0.961192 6.92185ZM1.57006 6.92185L1.71068 7.35156H2.1521L1.79272 7.61323L1.92939 8.03515L1.56614 7.77344L1.20677 8.0351L1.34347 7.60935L0.980183 7.34765H1.42943L1.57006 6.92185ZM4.10522 6.92185L4.24189 7.35156H4.69114L4.32785 7.61323L4.46848 8.03515L4.10518 7.77344L3.74193 8.0351L3.88256 7.60935L3.51927 7.34765H3.9646L4.10522 6.92185ZM6.63647 6.92185L6.7771 7.35156H7.22239L6.86302 7.61323L6.99973 8.03515L6.63643 7.77344L6.27706 8.0351L6.41381 7.60935L6.05443 7.34765H6.49973L6.63647 6.92185ZM9.1716 6.92185L9.30831 7.35156H9.75756L9.39427 7.61323L9.53489 8.03515L9.1716 7.77344L8.80831 8.0351L8.94893 7.60935L8.58568 7.34765H9.03489L9.1716 6.92185ZM-2.22682 7.99998L-2.09011 8.42577H-1.6409L-2.00419 8.68748L-1.86744 9.11719L-2.22682 8.85156L-2.59011 9.11323L-2.4534 8.68748L-2.81278 8.42577H-2.3674L-2.22682 7.99998ZM0.304433 7.99998L0.445058 8.42577H0.89035L0.527058 8.68748L0.667725 9.11719L0.304391 8.85156L-0.0588589 9.11323L0.0817661 8.68748L-0.281525 8.42577H0.167683L0.304433 7.99998ZM2.8396 7.99998L2.97627 8.42577H3.42552L3.06222 8.68748L3.19893 9.11719L2.83956 8.85156L2.47631 9.11323L2.61302 8.68748L2.25364 8.42577H2.69897L2.8396 7.99998ZM5.37085 7.99998L5.51147 8.42577H5.95677L5.59739 8.68748L5.7341 9.11719L5.37081 8.85156L5.01143 9.11323L5.14818 8.68748L4.78489 8.42577H5.23802L5.37085 7.99998ZM7.90598 7.99998L8.04268 8.42577H8.49193L8.12864 8.68748L8.26535 9.11719L7.90598 8.85156L7.54268 9.11323L7.67943 8.68748L7.32006 8.42577H7.76535L7.90598 7.99998ZM-3.49636 9.0781L-3.35573 9.5039H-2.9104L-3.26982 9.7656L-3.13307 10.1914L-3.49636 9.92969L-3.85573 10.1914L-3.71903 9.76169L-4.08228 9.49998H-3.62915L-3.49636 9.0781ZM-0.961192 9.0781L-0.824484 9.5039H-0.375275L-0.738567 9.7656L-0.5979 10.1914L-0.961234 9.92969L-1.32448 10.1914L-1.18386 9.76169L-1.54715 9.49998H-1.10182L-0.961192 9.0781ZM1.57006 9.0781L1.71068 9.5039H2.1521L1.80052 9.7656L1.93722 10.1914L1.57393 9.92969L1.21456 10.1914L1.35131 9.76169L0.988016 9.49998H1.43722L1.57006 9.0781ZM4.10522 9.0781L4.24189 9.5039H4.69114L4.32785 9.7656L4.46848 10.1914L4.10518 9.92969L3.74193 10.1914L3.88256 9.76169L3.51927 9.49998H3.9646L4.10522 9.0781ZM6.63647 9.0781L6.7771 9.5039H7.22239L6.86302 9.7656L6.99973 10.1914L6.63643 9.92969L6.27706 10.1914L6.41381 9.76169L6.05443 9.49998H6.49973L6.63647 9.0781ZM9.1716 9.0781L9.30831 9.5039H9.75756L9.39427 9.7656L9.53489 10.1914L9.1716 9.92969L8.80831 10.1914L8.94893 9.76169L8.58568 9.49998H9.03489L9.1716 9.0781Z" fill="white"/>
</g>
</g>
<defs>
<clipPath id="clip0_285_2056">
<rect width="18" height="18" rx="9" fill="white"/>
</clipPath>
<clipPath id="clip1_285_2056">
<rect width="26.6667" height="20" fill="white" transform="translate(-4.76196)"/>
</clipPath>
</defs>
</svg>
