<svg width="26" height="18" viewBox="0 0 26 18" fill="none" xmlns="http://www.w3.org/2000/svg">
<path d="M24.4823 8.49202C23.41 3.91612 21.7962 1.47379 19.4022 0.80666C18.899 0.667339 18.377 0.597736 17.8526 0.60003C17.1594 0.60003 16.5558 0.759416 15.9172 0.928346C15.1477 1.13211 14.2736 1.36356 12.999 1.36356C11.7244 1.36356 10.8498 1.13259 10.0787 0.928824C9.43968 0.759416 8.83651 0.60003 8.14538 0.60003C7.6031 0.598256 7.0632 0.667637 6.54116 0.806182C4.15986 1.47045 2.54704 3.91182 1.45902 8.48916C0.289099 13.4149 0.86496 16.5248 3.07386 17.2463C3.37664 17.3471 3.69523 17.399 4.01627 17.4C5.52948 17.4 6.74289 16.2103 7.57205 15.2363C8.50889 14.134 9.60551 13.5747 12.999 13.5747C16.03 13.5747 17.2843 13.9627 18.3678 15.2363C19.0488 16.0371 19.6924 16.5973 20.3345 16.95C21.1885 17.4186 22.0419 17.5226 22.8705 17.254C24.176 16.8335 24.9242 15.7221 25.0951 13.9498C25.225 12.5907 25.0248 10.8055 24.4823 8.49202ZM10.5722 8.23529H8.95431V9.76234C8.95431 9.96484 8.86909 10.159 8.71738 10.3022C8.56568 10.4454 8.35992 10.5259 8.14538 10.5259C7.93084 10.5259 7.72508 10.4454 7.57337 10.3022C7.42167 10.159 7.33644 9.96484 7.33644 9.76234V8.23529H5.71857C5.50403 8.23529 5.29827 8.15484 5.14657 8.01165C4.99486 7.86846 4.90964 7.67426 4.90964 7.47176C4.90964 7.26926 4.99486 7.07505 5.14657 6.93187C5.29827 6.78868 5.50403 6.70823 5.71857 6.70823H7.33644V5.18118C7.33644 4.97868 7.42167 4.78448 7.57337 4.64129C7.72508 4.4981 7.93084 4.41766 8.14538 4.41766C8.35992 4.41766 8.56568 4.4981 8.71738 4.64129C8.86909 4.78448 8.95431 4.97868 8.95431 5.18118V6.70823H10.5722C10.7867 6.70823 10.9925 6.78868 11.1442 6.93187C11.2959 7.07505 11.3811 7.26926 11.3811 7.47176C11.3811 7.67426 11.2959 7.86846 11.1442 8.01165C10.9925 8.15484 10.7867 8.23529 10.5722 8.23529ZM14.8191 8.42617C14.6191 8.42617 14.4236 8.37019 14.2573 8.26532C14.091 8.16045 13.9614 8.01139 13.8849 7.837C13.8084 7.6626 13.7883 7.4707 13.8274 7.28556C13.8664 7.10043 13.9627 6.93037 14.1041 6.79689C14.2455 6.66342 14.4257 6.57252 14.6218 6.53569C14.818 6.49887 15.0213 6.51777 15.2061 6.59C15.3908 6.66224 15.5487 6.78457 15.6599 6.94152C15.771 7.09847 15.8303 7.283 15.8303 7.47176C15.8303 7.72488 15.7237 7.96764 15.5341 8.14663C15.3445 8.32561 15.0873 8.42617 14.8191 8.42617ZM17.0437 10.5259C16.8436 10.5259 16.648 10.4698 16.4816 10.3648C16.3153 10.2599 16.1857 10.1107 16.1092 9.93614C16.0328 9.7616 16.0129 9.56958 16.0521 9.38438C16.0913 9.19918 16.1879 9.02912 16.3296 8.89574C16.4712 8.76236 16.6516 8.67165 16.848 8.6351C17.0443 8.59854 17.2477 8.61778 17.4324 8.69038C17.6171 8.76299 17.7749 8.88569 17.8857 9.04295C17.9965 9.20022 18.0553 9.38498 18.0548 9.57384C18.0542 9.82655 17.9473 10.0687 17.7578 10.2472C17.5682 10.4256 17.3114 10.5259 17.0437 10.5259ZM17.0437 6.32647C16.8437 6.32647 16.6482 6.2705 16.4819 6.16563C16.3156 6.06075 16.186 5.9117 16.1095 5.7373C16.0329 5.56291 16.0129 5.37101 16.0519 5.18587C16.0909 5.00073 16.1872 4.83067 16.3287 4.6972C16.4701 4.56372 16.6503 4.47282 16.8464 4.436C17.0425 4.39917 17.2459 4.41807 17.4306 4.49031C17.6154 4.56255 17.7733 4.68487 17.8844 4.84183C17.9955 4.99878 18.0548 5.1833 18.0548 5.37207C18.0548 5.62519 17.9483 5.86795 17.7587 6.04693C17.569 6.22592 17.3118 6.32647 17.0437 6.32647ZM19.2682 8.42617C19.0683 8.42617 18.8728 8.37019 18.7065 8.26532C18.5402 8.16045 18.4106 8.01139 18.334 7.837C18.2575 7.6626 18.2375 7.4707 18.2765 7.28556C18.3155 7.10043 18.4118 6.93037 18.5532 6.79689C18.6947 6.66342 18.8748 6.57252 19.071 6.53569C19.2671 6.49887 19.4704 6.51777 19.6552 6.59C19.84 6.66224 19.9979 6.78457 20.109 6.94152C20.2201 7.09847 20.2794 7.283 20.2794 7.47176C20.2794 7.72488 20.1729 7.96764 19.9832 8.14663C19.7936 8.32561 19.5364 8.42617 19.2682 8.42617Z" fill="#000"/>
</svg>
